<svg width="49" height="51" viewBox="0 0 49 51" fill="none" xmlns="http://www.w3.org/2000/svg">
<g clip-path="url(#clip0_14_91)">
<path d="M49 25.1473C49 11.353 38.0301 0.168945 24.5 0.168945C10.9699 0.168945 0 11.353 0 25.1473C0 37.6156 8.95884 47.9483 20.6719 49.8217V32.3681H14.4509V25.1451H20.6719V19.6459C20.6719 13.3866 24.3305 9.92713 29.9268 9.92713C32.6054 9.92713 35.4106 10.4163 35.4106 10.4163V16.5631H32.3196C29.2755 16.5631 28.3261 18.4884 28.3261 20.4639V25.1473H35.1208L34.0346 32.3701H28.3261V49.8237C40.0411 47.9483 49 37.6135 49 25.1473Z" fill="#FFFEFE"/>
</g>
<defs>
<clipPath id="clip0_14_91">
<rect width="49" height="49.9566" fill="white" transform="translate(0 0.168945)"/>
</clipPath>
</defs>
</svg>
