<svg width="180" height="144" viewBox="0 0 180 144" fill="none" xmlns="http://www.w3.org/2000/svg">
<path d="M0 0H180V144H0V0Z"/>
<path d="M16 56H167V85H16V56Z" fill="black"/>
<path d="M14.125 59.0156H18.5312V68.9375H19.9688V59.0156H24.3906V85H19.9688V72.3594H18.5312V85H14.125V59.0156Z" fill="white"/>
<path d="M28.6094 59.0156H34.5156L37.1406 85H32.8281L32.5 79.4688H30.6562L30.3281 85H26.0469L28.6094 59.0156ZM31.5156 64.1719L30.8125 76.0156H32.3125L31.6406 64.1719H31.5156Z" fill="white"/>
<path d="M38.9062 59.0156H44.3438C45.75 59.0156 46.7917 59.1719 47.4688 59.4844C48.1458 59.7865 48.599 60.3125 48.8281 61.0625C49.0573 61.8021 49.1719 62.8802 49.1719 64.2969V67.6875C49.1719 68.5833 49.125 69.2969 49.0312 69.8281C48.9479 70.3594 48.7604 70.8177 48.4688 71.2031C48.1771 71.5781 47.7396 71.901 47.1562 72.1719C47.9375 72.4635 48.4688 72.9219 48.75 73.5469C49.0312 74.1615 49.1719 75.0365 49.1719 76.1719V85H44.75V75.375C44.75 74.9375 44.6719 74.6302 44.5156 74.4531C44.3594 74.276 44.0885 74.1875 43.7031 74.1875C43.6302 74.1875 43.5677 74.1927 43.5156 74.2031C43.4635 74.2031 43.4062 74.2083 43.3438 74.2188V85H38.9062V59.0156ZM43.3438 62.4062V70.3438C43.4375 70.3438 43.5104 70.349 43.5625 70.3594C43.625 70.3594 43.6823 70.3646 43.7344 70.375C44.151 70.375 44.4219 70.2812 44.5469 70.0938C44.6823 69.9062 44.75 69.5521 44.75 69.0312V64.0469C44.75 63.3594 44.6927 62.9167 44.5781 62.7188C44.474 62.5104 44.1615 62.4062 43.6406 62.4062H43.3438Z" fill="white"/>
<path d="M51.375 59.0156H55.8125V81.5781H58.4688V85H51.375V59.0156Z" fill="white"/>
<path d="M60.0625 59.0156H67.1562V62.4062H64.5V69.0312H67.1562V72.4531H64.5V81.5781H67.1562V85H60.0625V59.0156Z" fill="white"/>
<path d="M68.0938 59.0156H72.4062L73.5625 69.0312L74.625 59.0156H78.8125L75.875 74.5V85H71.2656V74.5L68.0938 59.0156Z" fill="white"/>
<path d="M79.6406 72.6094H85.8906V76.0469H79.6406V72.6094Z" fill="white"/>
<path d="M87.9062 59.0156H93.3438C94.7917 59.0156 95.849 59.1562 96.5156 59.4375C97.1927 59.7083 97.6354 60.2031 97.8438 60.9219C98.0625 61.6406 98.1719 62.7656 98.1719 64.2969V70.5C98.1719 71.6562 98.1198 72.5625 98.0156 73.2188C97.9115 73.875 97.7031 74.3958 97.3906 74.7812C97.0781 75.1562 96.6094 75.4219 95.9844 75.5781C95.3698 75.7344 94.5 75.8125 93.375 75.8125H92.3438V85H87.9062V59.0156ZM92.3438 62.4062V72.3906H92.7344C93.2031 72.3906 93.4896 72.2969 93.5938 72.1094C93.6979 71.9219 93.75 71.4948 93.75 70.8281V64.0469C93.75 63.349 93.6979 62.901 93.5938 62.7031C93.4896 62.5052 93.1823 62.4062 92.6719 62.4062H92.3438Z" fill="white"/>
<path d="M100.094 59.0156H107.188V62.4062H104.531V69.0312H107.188V72.4531H104.531V81.5781H107.188V85H100.094V59.0156Z" fill="white"/>
<path d="M109.312 59.0156H114.75C116.229 59.0156 117.292 59.151 117.938 59.4219C118.594 59.6927 119.031 60.1823 119.25 60.8906C119.469 61.599 119.578 62.7344 119.578 64.2969V79.6875C119.578 81.2708 119.474 82.4167 119.266 83.125C119.057 83.8229 118.615 84.3125 117.938 84.5938C117.271 84.8646 116.219 85 114.781 85H109.312V59.0156ZM113.75 62.4062V81.6094H114.141C114.589 81.6094 114.865 81.5208 114.969 81.3438C115.073 81.1667 115.125 80.7969 115.125 80.2344V63.8125C115.125 63.3854 115.104 63.0885 115.062 62.9219C115.031 62.7448 114.943 62.6146 114.797 62.5312C114.661 62.4479 114.422 62.4062 114.078 62.4062H113.75Z" fill="white"/>
<path d="M121.719 59.0156H127.156C128.562 59.0156 129.604 59.1719 130.281 59.4844C130.958 59.7865 131.411 60.3125 131.641 61.0625C131.87 61.8021 131.984 62.8802 131.984 64.2969V67.6875C131.984 68.5833 131.938 69.2969 131.844 69.8281C131.76 70.3594 131.573 70.8177 131.281 71.2031C130.99 71.5781 130.552 71.901 129.969 72.1719C130.75 72.4635 131.281 72.9219 131.562 73.5469C131.844 74.1615 131.984 75.0365 131.984 76.1719V85H127.562V75.375C127.562 74.9375 127.484 74.6302 127.328 74.4531C127.172 74.276 126.901 74.1875 126.516 74.1875C126.443 74.1875 126.38 74.1927 126.328 74.2031C126.276 74.2031 126.219 74.2083 126.156 74.2188V85H121.719V59.0156ZM126.156 62.4062V70.3438C126.25 70.3438 126.323 70.349 126.375 70.3594C126.438 70.3594 126.495 70.3646 126.547 70.375C126.964 70.375 127.234 70.2812 127.359 70.0938C127.495 69.9062 127.562 69.5521 127.562 69.0312V64.0469C127.562 63.3594 127.505 62.9167 127.391 62.7188C127.286 62.5104 126.974 62.4062 126.453 62.4062H126.156Z" fill="white"/>
<path d="M144.266 64.0469V67.9688H139.844V63.4062C139.844 63.0104 139.786 62.7292 139.672 62.5625C139.557 62.3958 139.37 62.3125 139.109 62.3125C138.682 62.3125 138.469 62.6771 138.469 63.4062V67.4375C138.469 67.8646 138.526 68.1875 138.641 68.4062C138.755 68.6146 139.031 68.8438 139.469 69.0938L142.188 70.6562C142.74 70.9688 143.167 71.3177 143.469 71.7031C143.781 72.0885 143.99 72.5052 144.094 72.9531C144.208 73.401 144.266 73.9479 144.266 74.5938V80.0156C144.266 81.224 144.214 82.1458 144.109 82.7812C144.005 83.4062 143.781 83.901 143.438 84.2656C143.094 84.6198 142.589 84.8646 141.922 85C141.266 85.125 140.328 85.1875 139.109 85.1875C137.932 85.1875 137.021 85.1198 136.375 84.9844C135.729 84.8385 135.229 84.5938 134.875 84.25C134.521 83.8958 134.281 83.3906 134.156 82.7344C134.042 82.0677 133.984 81.1615 133.984 80.0156V74.2812H138.469V80.6094C138.469 80.9948 138.526 81.2812 138.641 81.4688C138.755 81.6458 138.943 81.7344 139.203 81.7344C139.63 81.7344 139.844 81.3594 139.844 80.6094V75.1094C139.844 74.6719 139.786 74.3542 139.672 74.1562C139.557 73.9479 139.286 73.724 138.859 73.4844L136 71.8125C135.219 71.3542 134.688 70.8073 134.406 70.1719C134.125 69.5365 133.984 68.7292 133.984 67.75V64.0469C133.984 62.901 134.047 61.9896 134.172 61.3125C134.307 60.6354 134.547 60.125 134.891 59.7812C135.245 59.4271 135.745 59.1875 136.391 59.0625C137.047 58.9271 137.964 58.8594 139.141 58.8594C140.714 58.8594 141.849 58.9896 142.547 59.25C143.245 59.5104 143.703 59.9948 143.922 60.7031C144.151 61.401 144.266 62.5156 144.266 64.0469Z" fill="white"/>
<path d="M146.234 64.0469C146.234 62.8385 146.286 61.9167 146.391 61.2812C146.505 60.6458 146.729 60.151 147.062 59.7969C147.406 59.4323 147.906 59.1875 148.562 59.0625C149.219 58.9271 150.151 58.8594 151.359 58.8594C152.932 58.8594 154.062 58.9844 154.75 59.2344C155.448 59.474 155.917 59.9479 156.156 60.6562C156.396 61.3646 156.516 62.4948 156.516 64.0469V79.9688C156.516 81.5104 156.401 82.6354 156.172 83.3438C155.943 84.0521 155.479 84.5365 154.781 84.7969C154.083 85.0573 152.964 85.1875 151.422 85.1875C149.839 85.1875 148.698 85.0625 148 84.8125C147.302 84.5625 146.833 84.0781 146.594 83.3594C146.354 82.6406 146.234 81.5104 146.234 79.9688V64.0469ZM150.656 63.4375V80.6094C150.656 80.9948 150.714 81.276 150.828 81.4531C150.943 81.6198 151.13 81.7031 151.391 81.7031C151.641 81.7031 151.812 81.6198 151.906 81.4531C152.01 81.276 152.062 80.9948 152.062 80.6094V63.4375C152.062 63.0312 152.01 62.7448 151.906 62.5781C151.802 62.401 151.609 62.3125 151.328 62.3125C151.089 62.3125 150.917 62.4062 150.812 62.5938C150.708 62.7812 150.656 63.0625 150.656 63.4375Z" fill="white"/>
<path d="M158.594 59.0156H162.562L164.984 71.9688H165.188L165.109 59.0156H168.953V85H165.016L162.562 71.6875H162.359L162.453 85H158.594V59.0156Z" fill="white"/>
</svg>
