<svg width="27" height="24" viewBox="0 0 27 24" fill="none" xmlns="http://www.w3.org/2000/svg">
<g clip-path="url(#clip0_9_123)">
<path d="M6.97497 7.41C6.71622 7.27 6.62622 6.96 6.78372 6.73L8.09997 4.78L9.25872 3.07C9.69747 2.42 10.755 2.42 11.1937 3.07L12.8587 5.53L11.475 7.59L10.665 8.79C10.485 9.02 10.1362 9.1 9.86622 8.96L6.97497 7.41ZM24.435 12.97L22.9275 10.73C22.77 10.5 22.4325 10.42 22.1625 10.55L19.2375 12.05C18.9675 12.19 18.8775 12.5 19.035 12.74L21.2287 16H22.455C23.1412 16 23.805 15.74 24.2437 15.27C24.5812 14.9 24.75 14.45 24.75 14C24.75 13.64 24.6375 13.29 24.435 12.97ZM18 21H19.6875C20.5425 21 21.3187 20.57 21.7012 19.89L23.3325 17H18V16.21C18 15.76 17.3925 15.54 17.0437 15.86L13.905 18.65C13.68 18.85 13.68 19.16 13.905 19.36L17.0437 22.15C17.3925 22.46 18 22.24 18 21.8V21ZM10.6875 17H6.41247L5.46747 18.41C5.12997 18.91 5.10747 19.53 5.39997 20.06C5.71497 20.63 6.37872 21 7.10997 21H10.6875C11.0025 21 11.25 20.78 11.25 20.5V17.5C11.25 17.22 11.0025 17 10.6875 17ZM6.88497 14.35L7.67247 14.77C8.09997 15 8.62872 14.65 8.50497 14.22L7.42497 10.38C7.35747 10.12 7.05372 9.95 6.74997 10.02L2.44122 10.98C1.95747 11.09 1.85622 11.66 2.28372 11.89L3.02622 12.29L2.56497 12.98C2.17122 13.57 2.13747 14.29 2.48622 14.9L4.31997 18.16L6.88497 14.35ZM19.1475 5.14L17.685 2.97C17.2687 2.37 16.5375 2 15.75 2H11.7787L15.2887 7.2L14.5125 7.61C14.085 7.84 14.175 8.42 14.67 8.52L18.9787 9.48C19.2825 9.55 19.5862 9.38 19.665 9.12L20.745 5.29C20.8687 4.86 20.34 4.51 19.9125 4.74L19.1475 5.14Z" fill="url(#paint0_linear_9_123)"/>
</g>
<defs>
<linearGradient id="paint0_linear_9_123" x1="13.777" y1="22.295" x2="14.3763" y2="7.27667" gradientUnits="userSpaceOnUse">
<stop stop-color="#C24600"/>
<stop offset="1" stop-color="#FF5100"/>
</linearGradient>
<clipPath id="clip0_9_123">
<rect width="27" height="24" fill="white"/>
</clipPath>
</defs>
</svg>
