<svg width="49" height="51" viewBox="0 0 49 51" fill="none" xmlns="http://www.w3.org/2000/svg">
<g clip-path="url(#clip0_14_93)">
<path d="M24.5 0.168945C17.8441 0.168945 17.0133 0.200168 14.3999 0.318815C11.7906 0.443707 10.0144 0.862093 8.4525 1.48031C6.84162 2.11725 5.47371 2.97276 4.11191 4.36113C2.75012 5.74952 1.90896 7.14206 1.28625 8.78646C0.679875 10.3788 0.267459 12.1898 0.147 14.8499C0.0245 17.5144 0 18.3614 0 25.1473C0 31.9331 0.030625 32.7802 0.147 35.4446C0.2695 38.1027 0.679875 39.9157 1.28625 41.508C1.911 43.1483 2.75012 44.5449 4.11191 45.9334C5.47371 47.3197 6.83959 48.1793 8.4525 48.8142C10.0164 49.4304 11.7927 49.8528 14.3999 49.9757C17.0133 50.1006 17.8441 50.1256 24.5 50.1256C31.1559 50.1256 31.9867 50.0943 34.6001 49.9757C37.2074 49.8508 38.9856 49.4304 40.5475 48.8142C42.1564 48.1773 43.5262 47.3197 44.8881 45.9334C46.2479 44.5449 47.091 43.1546 47.7137 41.508C48.3181 39.9157 48.7325 38.1027 48.853 35.4446C48.9755 32.7802 49 31.9331 49 25.1473C49 18.3614 48.9694 17.5144 48.853 14.8499C48.7305 12.1918 48.3181 10.3768 47.7137 8.78646C47.089 7.14414 46.2479 5.74952 44.8881 4.36113C43.5262 2.97276 42.1625 2.11518 40.5475 1.48031C38.9856 0.862093 37.2074 0.441626 34.6001 0.318815C31.9867 0.193924 31.1559 0.168945 24.5 0.168945ZM24.5 4.66504C31.0395 4.66504 31.8194 4.69834 34.4021 4.81283C36.7909 4.92731 38.0872 5.33113 38.9489 5.67666C40.0962 6.12835 40.9089 6.66955 41.7705 7.54171C42.6259 8.41596 43.1567 9.24648 43.5997 10.4163C43.9346 11.2947 44.3347 12.6165 44.443 15.0518C44.5594 17.687 44.5859 18.478 44.5859 25.1473C44.5859 31.8165 44.5552 32.6095 44.4349 35.2427C44.3102 37.6781 43.9121 38.9998 43.5752 39.8782C43.118 41.048 42.5974 41.8765 41.7399 42.7549C40.8844 43.627 40.0575 44.1682 38.9224 44.6199C38.0649 44.9613 36.748 45.3692 34.3593 45.4796C31.7581 45.5982 30.9925 45.6253 24.4387 45.6253C17.883 45.6253 17.1174 45.594 14.5183 45.4713C12.1275 45.3442 10.8106 44.9383 9.95312 44.5949C8.79141 44.1287 7.99313 43.5979 7.13766 42.7237C6.27813 41.8515 5.72891 41.0085 5.30016 39.8512C4.96329 38.977 4.56721 37.6344 4.44266 35.199C4.35079 32.5763 4.31812 31.7665 4.31812 25.116C4.31812 18.4635 4.35079 17.6517 4.44266 14.9977C4.56721 12.5624 4.96329 11.2218 5.30016 10.3476C5.72891 9.16114 6.27813 8.34934 7.13766 7.47302C7.99313 6.60086 8.79141 6.03885 9.95312 5.6038C10.8106 5.25828 12.0989 4.85238 14.4877 4.72749C17.0907 4.63382 17.8564 4.60259 24.4081 4.60259L24.5 4.66504ZM24.5 12.3209C17.5481 12.3209 11.9192 18.0659 11.9192 25.1473C11.9192 32.2348 17.5543 37.9736 24.5 37.9736C31.4519 37.9736 37.0807 32.2286 37.0807 25.1473C37.0807 18.0597 31.4457 12.3209 24.5 12.3209ZM24.5 33.4733C19.9879 33.4733 16.3334 29.7475 16.3334 25.1473C16.3334 20.547 19.9879 16.8212 24.5 16.8212C29.0121 16.8212 32.6666 20.547 32.6666 25.1473C32.6666 29.7475 29.0121 33.4733 24.5 33.4733ZM40.5189 11.8151C40.5189 13.4699 39.2 14.8125 37.5789 14.8125C35.9557 14.8125 34.6389 13.4678 34.6389 11.8151C34.6389 10.1623 35.9579 8.81976 37.5789 8.81976C39.198 8.81768 40.5189 10.1623 40.5189 11.8151Z" fill="#FFFEFE"/>
</g>
<defs>
<clipPath id="clip0_14_93">
<rect width="49" height="49.9566" fill="white" transform="translate(0 0.168945)"/>
</clipPath>
</defs>
</svg>
