<svg width="30" height="31" viewBox="0 0 30 31" fill="none" xmlns="http://www.w3.org/2000/svg">
<g filter="url(#filter0_d_9_126)">
<path d="M15 8C12.79 8 11 9.79 11 12C11 14.21 12.79 16 15 16C17.21 16 19 14.21 19 12C19 9.79 17.21 8 15 8ZM23.94 11C23.7135 8.97212 22.8042 7.08154 21.3613 5.63869C19.9185 4.19585 18.0279 3.28651 16 3.06V2C16 1.45 15.55 1 15 1C14.45 1 14 1.45 14 2V3.06C11.9721 3.28651 10.0815 4.19585 8.63869 5.63869C7.19585 7.08154 6.28651 8.97212 6.06 11H5C4.45 11 4 11.45 4 12C4 12.55 4.45 13 5 13H6.06C6.28651 15.0279 7.19585 16.9185 8.63869 18.3613C10.0815 19.8042 11.9721 20.7135 14 20.94V22C14 22.55 14.45 23 15 23C15.55 23 16 22.55 16 22V20.94C18.0279 20.7135 19.9185 19.8042 21.3613 18.3613C22.8042 16.9185 23.7135 15.0279 23.94 13H25C25.55 13 26 12.55 26 12C26 11.45 25.55 11 25 11H23.94ZM15 19C11.13 19 8 15.87 8 12C8 8.13 11.13 5 15 5C18.87 5 22 8.13 22 12C22 15.87 18.87 19 15 19Z" fill="url(#paint0_linear_9_126)"/>
</g>
<defs>
<filter id="filter0_d_9_126" x="-1" y="0" width="32" height="32" filterUnits="userSpaceOnUse" color-interpolation-filters="sRGB">
<feFlood flood-opacity="0" result="BackgroundImageFix"/>
<feColorMatrix in="SourceAlpha" type="matrix" values="0 0 0 0 0 0 0 0 0 0 0 0 0 0 0 0 0 0 127 0" result="hardAlpha"/>
<feOffset dy="4"/>
<feGaussianBlur stdDeviation="2"/>
<feComposite in2="hardAlpha" operator="out"/>
<feColorMatrix type="matrix" values="0 0 0 0 0 0 0 0 0 0 0 0 0 0 0 0 0 0 0.25 0"/>
<feBlend mode="normal" in2="BackgroundImageFix" result="effect1_dropShadow_9_126"/>
<feBlend mode="normal" in="SourceGraphic" in2="effect1_dropShadow_9_126" result="shape"/>
</filter>
<linearGradient id="paint0_linear_9_126" x1="15.3823" y1="23" x2="16.1097" y2="6.72658" gradientUnits="userSpaceOnUse">
<stop stop-color="#C24600"/>
<stop offset="1" stop-color="#FF5100"/>
</linearGradient>
</defs>
</svg>
