<svg width="54" height="53" viewBox="0 0 54 53" fill="none" xmlns="http://www.w3.org/2000/svg">
<path d="M12.8757 50.9272C12.8814 49.8226 13.7814 48.9318 14.886 48.9376C15.9905 48.9433 16.8813 49.8433 16.8756 50.9479C16.8699 52.0525 15.9698 52.9432 14.8653 52.9375C13.7607 52.9318 12.8699 52.0317 12.8757 50.9272Z" fill="#DD5000"/>
<path d="M0.875813 50.8649C0.88154 49.7604 1.7816 48.8696 2.88616 48.8753C3.99071 48.8811 4.88149 49.7811 4.87576 50.8857C4.87003 51.9902 3.96997 52.881 2.86542 52.8753C1.76086 52.8696 0.870086 51.9695 0.875813 50.8649Z" fill="#DD5000"/>
<path d="M36.9375 39.0518C36.9433 37.9472 37.8433 37.0564 38.9479 37.0622C40.0524 37.0679 40.9432 37.9679 40.9375 39.0725C40.9318 40.177 40.0317 41.0678 38.9272 41.0621C37.8226 41.0564 36.9318 40.1563 36.9375 39.0518Z" fill="#DD5000"/>
<path d="M24.9377 38.9895C24.9434 37.885 25.8435 36.9942 26.9481 36.9999C28.0526 37.0057 28.9434 37.9057 28.9377 39.0103C28.9319 40.1148 28.0319 41.0056 26.9273 40.9999C25.8228 40.9942 24.932 40.0941 24.9377 38.9895Z" fill="#DD5000"/>
<path d="M12.9379 38.9273C12.9436 37.8228 13.8437 36.932 14.9482 36.9377C16.0528 36.9434 16.9435 37.8435 16.9378 38.9481C16.9321 40.0526 16.032 40.9434 14.9275 40.9377C13.8229 40.9319 12.9321 40.0319 12.9379 38.9273Z" fill="#DD5000"/>
<path d="M0.93803 38.8651C0.943756 37.7605 1.84382 36.8698 2.94837 36.8755C4.05293 36.8812 4.9437 37.7813 4.93798 38.8858C4.93225 39.9904 4.03219 40.8812 2.92763 40.8754C1.82308 40.8697 0.932303 39.9697 0.93803 38.8651Z" fill="#DD5000"/>
<path d="M36.9998 27.0519C37.0055 25.9474 37.9056 25.0566 39.0101 25.0623C40.1147 25.068 41.0054 25.9681 40.9997 27.0727C40.994 28.1772 40.0939 29.068 38.9894 29.0623C37.8848 29.0565 36.994 28.1565 36.9998 27.0519Z" fill="#DD5000"/>
<path d="M24.9999 26.9897C25.0057 25.8851 25.9057 24.9944 27.0103 25.0001C28.1148 25.0058 29.0056 25.9059 28.9999 27.0104C28.9941 28.115 28.0941 29.0058 26.9895 29C25.885 28.9943 24.9942 28.0943 24.9999 26.9897Z" fill="#DD5000"/>
<path d="M13.0001 26.9275C13.0058 25.8229 13.9059 24.9322 15.0104 24.9379C16.115 24.9436 17.0058 25.8437 17 26.9482C16.9943 28.0528 16.0942 28.9436 14.9897 28.9378C13.8851 28.9321 12.9944 28.032 13.0001 26.9275Z" fill="#DD5000"/>
<path d="M1.00025 26.8653C1.00597 25.7607 1.90604 24.8699 3.01059 24.8757C4.11514 24.8814 5.00592 25.7814 5.00019 26.886C4.99447 27.9906 4.0944 28.8813 2.98985 28.8756C1.8853 28.8699 0.994519 27.9698 1.00025 26.8653Z" fill="#DD5000"/>
<path d="M49.0618 15.1143C49.0675 14.0097 49.9676 13.119 51.0722 13.1247C52.1767 13.1304 53.0675 14.0305 53.0618 15.135C53.056 16.2396 52.156 17.1304 51.0514 17.1246C49.9469 17.1189 49.0561 16.2188 49.0618 15.1143Z" fill="#DD5000"/>
<path d="M37.062 15.0521C37.0677 13.9475 37.9678 13.0567 39.0723 13.0625C40.1769 13.0682 41.0677 13.9683 41.0619 15.0728C41.0562 16.1774 40.1561 17.0681 39.0516 17.0624C37.947 17.0567 37.0563 16.1566 37.062 15.0521Z" fill="#DD5000"/>
<path d="M25.0621 14.9899C25.0679 13.8853 25.9679 12.9945 27.0725 13.0003C28.177 13.006 29.0678 13.906 29.0621 15.0106C29.0564 16.1152 28.1563 17.0059 27.0517 17.0002C25.9472 16.9945 25.0564 16.0944 25.0621 14.9899Z" fill="#DD5000"/>
<path d="M13.0623 14.9276C13.068 13.8231 13.9681 12.9323 15.0726 12.938C16.1772 12.9438 17.068 13.8438 17.0622 14.9484C17.0565 16.0529 16.1565 16.9437 15.0519 16.938C13.9474 16.9323 13.0566 16.0322 13.0623 14.9276Z" fill="#DD5000"/>
<path d="M1.06246 14.8654C1.06819 13.7609 1.96825 12.8701 3.07281 12.8758C4.17736 12.8815 5.06814 13.7816 5.06241 14.8862C5.05668 15.9907 4.15662 16.8815 3.05207 16.8758C1.94751 16.87 1.05674 15.97 1.06246 14.8654Z" fill="#DD5000"/>
<path d="M49.124 3.11445C49.1298 2.0099 50.0298 1.11912 51.1344 1.12485C52.2389 1.13058 53.1297 2.03064 53.124 3.13519C53.1183 4.23975 52.2182 5.13052 51.1136 5.1248C50.0091 5.11907 49.1183 4.21901 49.124 3.11445Z" fill="#DD5000"/>
<path d="M37.1242 3.05224C37.1299 1.94768 38.03 1.05691 39.1345 1.06263C40.2391 1.06836 41.1299 1.96842 41.1241 3.07298C41.1184 4.17753 40.2184 5.06831 39.1138 5.06258C38.0092 5.05685 37.1185 4.15679 37.1242 3.05224Z" fill="#DD5000"/>
<path d="M25.1244 2.99002C25.1301 1.88547 26.0301 0.994689 27.1347 1.00042C28.2393 1.00614 29.13 1.90621 29.1243 3.01076C29.1186 4.11531 28.2185 5.00609 27.114 5.00036C26.0094 4.99464 25.1186 4.09457 25.1244 2.99002Z" fill="#DD5000"/>
<path d="M13.1245 2.9278C13.1302 1.82325 14.0303 0.932473 15.1349 0.9382C16.2394 0.943926 17.1302 1.84399 17.1245 2.94854C17.1187 4.0531 16.2187 4.94387 15.1141 4.93815C14.0096 4.93242 13.1188 4.03236 13.1245 2.9278Z" fill="#DD5000"/>
<path d="M1.12468 2.86559C1.13041 1.76103 2.03047 0.870256 3.13502 0.875983C4.23958 0.88171 5.13035 1.78177 5.12463 2.88633C5.1189 3.99088 4.21884 4.88166 3.11428 4.87593C2.00973 4.8702 1.11895 3.97014 1.12468 2.86559Z" fill="#DD5000"/>
</svg>
