<svg width="49" height="51" viewBox="0 0 49 51" fill="none" xmlns="http://www.w3.org/2000/svg">
<path d="M47.9751 13.0452C47.6983 11.9821 47.1524 11.0118 46.392 10.2315C45.6317 9.45118 44.6836 8.88823 43.6426 8.59903C39.8228 7.54785 24.5 7.54785 24.5 7.54785C24.5 7.54785 9.17729 7.54785 5.35529 8.59903C4.31488 8.88875 3.36731 9.4519 2.60737 10.2321C1.84742 11.0124 1.30175 11.9824 1.02492 13.0452C0 16.9668 0 25.1472 0 25.1472C0 25.1472 0 33.3276 1.02492 37.2491C1.30174 38.3123 1.84765 39.2825 2.60801 40.0628C3.36835 40.8431 4.31644 41.406 5.35734 41.6953C9.17729 42.7464 24.5 42.7464 24.5 42.7464C24.5 42.7464 39.8228 42.7464 43.6448 41.6953C44.6857 41.4063 45.6339 40.8434 46.3943 40.0631C47.1547 39.2827 47.7004 38.3123 47.9771 37.2491C49 33.3276 49 25.1472 49 25.1472C49 25.1472 49 16.9668 47.9751 13.0452ZM19.4878 32.574V17.7203L32.2951 25.1472L19.4878 32.574Z" fill="#FFFEFE"/>
</svg>
