<svg width="1268" height="50" viewBox="0 0 1268 50" fill="none" xmlns="http://www.w3.org/2000/svg">
<path d="M446.624 36.52V1H437.648L418.88 28.408L415.712 24.424C421.376 23.56 424.544 18.568 424.544 13.24C424.544 8.152 421.76 3.88 418.016 2.248C416.144 1.432 413.36 1 409.664 1H398V36.52H406.688V25.048H406.784L414.992 36.52H424.16L427.28 31.384H437.552V36.52H446.624ZM406.688 18.856V8.968H410.144C413.552 8.968 415.856 10.696 415.856 13.768C415.856 17.032 413.696 18.856 410.096 18.856H406.688ZM437.552 24.184H431.6L437.456 14.344H437.552V24.184ZM483.03 36.52V1H474.342L474.726 23.464L460.902 1H453.078V36.52H461.766L461.526 14.824L475.158 36.52H483.03ZM509.228 36.52V28.552H498.188V22.456H508.892V14.488H498.188V8.968H509.228V1H489.5V36.52H509.228ZM545.29 36.52L532.762 18.712L544.522 1H535.018L524.986 16.984H524.89V1H515.818V36.52H524.89V21.16H524.986L534.682 36.52H545.29Z" fill="#9C9C9C"/>
<path fill-rule="evenodd" clip-rule="evenodd" d="M756.024 16.8501H758.741C761.549 16.8501 763.066 20.1421 761.237 22.2751L758.577 25.3751C758.865 27.2137 759.836 28.876 761.296 30.0301C762.757 31.1848 764.6 31.7468 766.457 31.6041C768.314 31.4614 770.049 30.6245 771.317 29.2601C772.584 27.8962 773.289 26.1045 773.292 24.2431C773.292 23.9193 773.355 23.5986 773.479 23.2994C773.603 23.0002 773.785 22.7284 774.014 22.4995C774.243 22.2706 774.515 22.0892 774.814 21.9655C775.113 21.8419 775.434 21.7786 775.758 21.7791C776.411 21.7794 777.038 22.0389 777.501 22.5009C777.963 22.9628 778.224 23.5894 778.225 24.2431C778.225 26.829 777.41 29.3492 775.897 31.4461C774.764 33.0129 773.279 34.2917 771.561 35.1796C769.843 36.0674 767.941 36.5395 766.008 36.5578C764.074 36.5761 762.164 36.1401 760.429 35.2849C758.695 34.4297 757.186 33.1792 756.024 31.6341C754.861 33.1792 753.352 34.4297 751.618 35.2849C749.884 36.1401 747.973 36.5761 746.04 36.5578C744.106 36.5395 742.204 36.0674 740.487 35.1796C738.769 34.2917 737.284 33.0129 736.151 31.4461C734.637 29.3493 733.822 26.8291 733.822 24.2431C733.822 23.9192 733.885 23.5984 734.009 23.2992C734.133 22.9999 734.315 22.728 734.544 22.4991C734.773 22.2702 735.045 22.0888 735.345 21.9653C735.644 21.8417 735.965 21.7784 736.289 21.7791C736.942 21.7794 737.569 22.0389 738.032 22.5009C738.494 22.9628 738.755 23.5894 738.756 24.2431C738.753 26.1075 739.455 27.9039 740.722 29.2721C741.667 30.2935 742.882 31.0276 744.226 31.3903C745.57 31.753 746.988 31.7295 748.32 31.3226C749.651 30.9156 750.84 30.1417 751.751 29.0895C752.663 28.0374 753.259 26.7497 753.472 25.3741L750.81 22.2741C748.982 20.1421 750.498 16.8511 753.31 16.8511H756.024V16.8501Z" fill="#9C9C9C"/>
<path d="M767.535 10.2801C768.183 10.2806 768.824 10.1535 769.423 9.90614C770.021 9.65874 770.565 9.29587 771.023 8.83823C771.481 8.3806 771.845 7.83718 772.093 7.23901C772.341 6.64085 772.469 5.99966 772.469 5.35207C772.469 4.70449 772.341 4.0633 772.093 3.46513C771.845 2.86697 771.481 2.32355 771.023 1.86592C770.565 1.40828 770.021 1.0454 769.423 0.798008C768.824 0.550613 768.183 0.423548 767.535 0.424074C766.888 0.42368 766.246 0.550841 765.648 0.798295C765.05 1.04575 764.506 1.40865 764.048 1.86627C763.59 2.32389 763.226 2.86727 762.978 3.46537C762.73 4.06347 762.602 4.70457 762.602 5.35207C762.602 5.99958 762.73 6.64068 762.978 7.23878C763.226 7.83688 763.59 8.38026 764.048 8.83788C764.506 9.2955 765.05 9.6584 765.648 9.90585C766.246 10.1533 766.888 10.2805 767.535 10.2801ZM744.512 10.2801C745.16 10.2805 745.801 10.1533 746.399 9.90585C746.998 9.6584 747.541 9.2955 747.999 8.83788C748.457 8.38026 748.821 7.83688 749.069 7.23878C749.317 6.64068 749.445 5.99958 749.445 5.35207C749.445 4.70457 749.317 4.06347 749.069 3.46537C748.821 2.86727 748.457 2.32389 747.999 1.86627C747.541 1.40865 746.998 1.04575 746.399 0.798295C745.801 0.550841 745.16 0.42368 744.512 0.424074C743.865 0.423548 743.223 0.550613 742.625 0.798008C742.026 1.0454 741.482 1.40828 741.024 1.86592C740.566 2.32355 740.202 2.86697 739.954 3.46513C739.706 4.0633 739.578 4.70449 739.578 5.35207C739.578 5.99966 739.706 6.64085 739.954 7.23901C740.202 7.83718 740.566 8.3806 741.024 8.83823C741.482 9.29587 742.026 9.65874 742.625 9.90614C743.223 10.1535 743.865 10.2806 744.512 10.2801ZM812.445 1.62807C813.205 1.62807 813.829 1.84507 814.317 2.27907C814.805 2.71307 815.049 3.28307 815.049 3.98907V28.3241C815.049 29.0571 814.819 29.6401 814.357 30.0741C813.897 30.5081 813.286 30.7251 812.527 30.7251C811.767 30.7251 811.157 30.5081 810.695 30.0751C810.234 29.6401 810.003 29.0571 810.003 28.3251V27.3071C809.406 28.4191 808.538 29.2871 807.398 29.9111C806.286 30.5351 805.011 30.8471 803.573 30.8471C801.863 30.8471 800.331 30.4131 798.975 29.5451C797.645 28.6771 796.601 27.4561 795.841 25.8821C795.108 24.2821 794.742 22.4511 794.742 20.3891C794.742 18.3271 795.108 16.5231 795.841 14.9761C796.601 13.4301 797.645 12.2361 798.975 11.3951C800.304 10.5541 801.837 10.1331 803.573 10.1331C805.011 10.1331 806.286 10.4321 807.399 11.0291C808.484 11.5989 809.375 12.4767 809.962 13.5521V3.90707C809.962 3.22907 810.179 2.68607 810.613 2.27907C811.075 1.84507 811.685 1.62807 812.445 1.62807ZM804.916 26.9001C806.544 26.9001 807.792 26.3441 808.66 25.2311C809.555 24.1191 810.003 22.5311 810.003 20.4701C810.003 18.4081 809.555 16.8341 808.66 15.7501C807.792 14.6371 806.558 14.0801 804.957 14.0801C803.329 14.0801 802.067 14.6231 801.172 15.7091C800.277 16.7941 799.829 18.3541 799.829 20.3891C799.829 22.4511 800.277 24.0511 801.172 25.1911C802.067 26.3311 803.315 26.9001 804.916 26.9001ZM829.357 30.8471C827.323 30.8471 825.532 30.4271 823.986 29.5861C822.466 28.7451 821.286 27.5381 820.445 25.9641C819.604 24.3901 819.183 22.5591 819.183 20.4701C819.183 18.3811 819.603 16.5631 820.445 15.0171C821.286 13.4431 822.466 12.2361 823.985 11.3951C825.532 10.5541 827.323 10.1331 829.357 10.1331C831.392 10.1331 833.169 10.5531 834.688 11.3951C836.211 12.2117 837.447 13.4759 838.229 15.0171C839.07 16.5631 839.491 18.3811 839.491 20.4701C839.491 22.5601 839.07 24.3901 838.229 25.9641C837.447 27.5052 836.211 28.7694 834.688 29.5861C833.169 30.4261 831.392 30.8471 829.358 30.8471H829.357ZM829.317 26.9001C830.972 26.9001 832.233 26.3571 833.101 25.2721C833.97 24.1871 834.404 22.5861 834.404 20.4701C834.404 18.3811 833.97 16.7941 833.101 15.7091C832.233 14.5961 830.985 14.0401 829.357 14.0401C827.73 14.0401 826.467 14.5961 825.573 15.7091C824.705 16.7941 824.27 18.3811 824.27 20.4701C824.27 22.5861 824.704 24.1871 825.573 25.2721C826.441 26.3571 827.689 26.9001 829.317 26.9001ZM860.538 10.2151C861.298 10.2151 861.908 10.4321 862.369 10.8651C862.831 11.3001 863.061 11.8831 863.061 12.6151V28.6901C863.061 31.8101 862.193 34.1701 860.457 35.7721C858.72 37.3721 856.157 38.1721 852.765 38.1721C849.808 38.1721 847.339 37.6171 845.359 36.5041C844.355 35.9071 843.853 35.1881 843.853 34.3471C843.853 33.7501 843.989 33.2761 844.26 32.9231C844.558 32.5701 844.938 32.3931 845.399 32.3931C845.644 32.3931 845.942 32.4481 846.295 32.5571C846.647 32.6921 847.014 32.8421 847.393 33.0041C848.243 33.3656 849.113 33.6781 849.998 33.9401C850.785 34.1571 851.68 34.2661 852.684 34.2661C856.238 34.2661 858.015 32.5301 858.015 29.0561V26.4521C857.418 27.5651 856.55 28.4321 855.411 29.0571C854.271 29.6541 852.969 29.9521 851.504 29.9521C849.767 29.9521 848.221 29.5451 846.864 28.7321C845.535 27.8901 844.491 26.7241 843.731 25.2321C842.971 23.7391 842.591 22.0171 842.591 20.0631C842.591 18.1101 842.958 16.3871 843.69 14.8951C844.45 13.3751 845.508 12.2091 846.864 11.3951C848.221 10.5541 849.767 10.1331 851.504 10.1331C852.969 10.1331 854.271 10.4451 855.411 11.0691C856.521 11.6373 857.43 12.5322 858.015 13.6331V12.5751C858.015 11.8701 858.246 11.3001 858.707 10.8651C859.168 10.4321 859.779 10.2151 860.538 10.2151ZM852.847 26.0051C854.475 26.0051 855.736 25.4751 856.631 24.4181C857.554 23.3591 858.015 21.9081 858.015 20.0631C858.015 18.1911 857.554 16.7261 856.631 15.6681C855.736 14.6101 854.475 14.0811 852.847 14.0811C851.246 14.0811 849.984 14.6101 849.062 15.6681C848.14 16.7261 847.678 18.1911 847.678 20.0631C847.678 21.9081 848.14 23.3591 849.062 24.4181C849.984 25.4761 851.246 26.0051 852.847 26.0051ZM875.533 30.8471C872.576 30.8471 870.189 30.2641 868.371 29.0971C867.503 28.5821 867.069 27.8491 867.069 26.9001C867.069 26.3571 867.218 25.9231 867.516 25.5981C867.815 25.2451 868.181 25.0681 868.615 25.0681C869.076 25.0681 869.714 25.2861 870.528 25.7201C871.396 26.1271 872.183 26.4391 872.888 26.6561C873.621 26.8731 874.543 26.9811 875.655 26.9811C876.795 26.9811 877.677 26.7911 878.301 26.4111C878.952 26.0311 879.277 25.5031 879.277 24.8241C879.277 24.3641 879.142 23.9971 878.87 23.7261C878.626 23.4541 878.165 23.2101 877.487 22.9931C876.835 22.7491 875.832 22.4781 874.475 22.1791C872.061 21.6911 870.324 20.9991 869.266 20.1041C868.235 19.2091 867.72 17.9741 867.72 16.4011C867.72 15.2071 868.072 14.1351 868.778 13.1851C869.483 12.2091 870.446 11.4631 871.667 10.9471C872.915 10.4051 874.326 10.1331 875.899 10.1331C877.039 10.1331 878.138 10.2831 879.196 10.5811C880.205 10.8313 881.168 11.2433 882.045 11.8011C882.913 12.3441 883.347 13.0631 883.347 13.9591C883.347 14.5011 883.198 14.9631 882.899 15.3421C882.601 15.6951 882.234 15.8721 881.8 15.8721C881.502 15.8721 881.203 15.8171 880.905 15.7091C880.548 15.5273 880.195 15.3372 879.847 15.1391C879.06 14.7321 878.382 14.4341 877.812 14.2441C877.242 14.0271 876.537 13.9181 875.696 13.9181C874.692 13.9181 873.892 14.1221 873.295 14.5281C872.725 14.9351 872.44 15.4921 872.44 16.1971C872.44 16.8751 872.739 17.3911 873.336 17.7431C873.933 18.0961 875.086 18.4491 876.795 18.8021C878.613 19.1821 880.037 19.6151 881.068 20.1041C882.099 20.5921 882.831 21.2031 883.265 21.9351C883.727 22.6681 883.957 23.6041 883.957 24.7431C883.957 26.5881 883.184 28.0671 881.638 29.1791C880.118 30.2911 878.083 30.8471 875.533 30.8471Z" fill="#9C9C9C"/>
<g clip-path="url(#clip0_13_13)">
<path d="M2.688 30.072C1.876 30.072 1.218 29.82 0.714 29.316C0.238 28.812 0 28.154 0 27.342V2.772C0 1.96 0.224 1.33 0.672 0.882C1.148 0.434 1.792 0.21 2.604 0.21H17.346C19.054 0.21 19.908 0.938 19.908 2.394C19.908 3.822 19.054 4.536 17.346 4.536H5.334V12.6H16.506C18.214 12.6 19.068 13.328 19.068 14.784C19.068 16.212 18.214 16.926 16.506 16.926H5.334V27.342C5.334 28.154 5.096 28.812 4.62 29.316C4.144 29.82 3.5 30.072 2.688 30.072ZM27.613 30.072C26.857 30.072 26.227 29.862 25.723 29.442C25.247 28.994 25.009 28.364 25.009 27.552V2.478C25.009 1.666 25.247 1.05 25.723 0.63C26.227 0.21 26.857 0 27.613 0C28.369 0 28.999 0.21 29.503 0.63C30.007 1.05 30.259 1.666 30.259 2.478V27.552C30.259 28.364 30.007 28.994 29.503 29.442C28.999 29.862 28.369 30.072 27.613 30.072ZM51.927 24.192C52.403 24.192 52.781 24.374 53.061 24.738C53.369 25.102 53.523 25.592 53.523 26.208C53.523 27.076 53.005 27.804 51.969 28.392C51.017 28.924 49.939 29.358 48.735 29.694C47.531 30.002 46.383 30.156 45.291 30.156C41.987 30.156 39.369 29.204 37.437 27.3C35.505 25.396 34.539 22.792 34.539 19.488C34.539 17.388 34.959 15.526 35.799 13.902C36.639 12.278 37.815 11.018 39.327 10.122C40.867 9.226 42.603 8.778 44.535 8.778C46.383 8.778 47.993 9.184 49.365 9.996C50.737 10.808 51.801 11.956 52.557 13.44C53.313 14.924 53.691 16.674 53.691 18.69C53.691 19.894 53.159 20.496 52.095 20.496H39.705C39.873 22.428 40.419 23.856 41.343 24.78C42.267 25.676 43.611 26.124 45.375 26.124C46.271 26.124 47.055 26.012 47.727 25.788C48.427 25.564 49.211 25.256 50.079 24.864C50.919 24.416 51.535 24.192 51.927 24.192ZM44.66 12.474C43.232 12.474 42.084 12.922 41.216 13.818C40.376 14.714 39.872 16.002 39.704 17.682H49.196C49.14 15.974 48.72 14.686 47.936 13.818C47.152 12.922 46.06 12.474 44.66 12.474ZM75.383 25.956C75.887 26.46 76.139 27.034 76.139 27.678C76.139 28.294 75.901 28.854 75.425 29.358C74.949 29.834 74.389 30.072 73.745 30.072C73.045 30.072 72.443 29.778 71.939 29.19L66.017 22.638L60.095 29.19C59.563 29.75 58.961 30.03 58.289 30.03C57.673 30.03 57.127 29.792 56.651 29.316C56.175 28.84 55.937 28.294 55.937 27.678C55.937 27.034 56.189 26.46 56.693 25.956L62.825 19.278L57.029 12.978C56.525 12.474 56.273 11.9 56.273 11.256C56.273 10.612 56.511 10.066 56.987 9.618C57.463 9.142 58.009 8.904 58.625 8.904C59.297 8.904 59.899 9.184 60.431 9.744L66.017 15.876L71.603 9.744C72.135 9.184 72.737 8.904 73.409 8.904C74.053 8.904 74.599 9.142 75.047 9.618C75.523 10.066 75.761 10.612 75.761 11.256C75.761 11.9 75.509 12.474 75.005 12.978L69.209 19.278L75.383 25.956ZM98.619 14.532C100.327 15.008 101.643 15.876 102.567 17.136C103.519 18.396 103.995 19.936 103.995 21.756C103.995 24.276 103.085 26.25 101.265 27.678C99.473 29.106 96.995 29.82 93.831 29.82H82.995C82.183 29.82 81.539 29.596 81.063 29.148C80.615 28.7 80.391 28.07 80.391 27.258V2.772C80.391 1.96 80.615 1.33 81.063 0.882C81.539 0.434 82.183 0.21 82.995 0.21H93.41C96.49 0.21 98.898 0.896 100.634 2.268C102.398 3.612 103.28 5.502 103.28 7.938C103.28 9.506 102.86 10.864 102.02 12.012C101.208 13.16 100.074 14 98.618 14.532H98.619ZM85.683 12.684H92.529C96.253 12.684 98.115 11.298 98.115 8.526C98.115 7.126 97.653 6.09 96.729 5.418C95.805 4.746 94.405 4.41 92.529 4.41H85.683V12.684ZM93.243 25.62C95.203 25.62 96.631 25.27 97.527 24.57C98.423 23.87 98.871 22.778 98.871 21.294C98.871 19.81 98.409 18.704 97.485 17.976C96.589 17.248 95.175 16.884 93.243 16.884H85.683V25.62H93.243ZM111.203 30.072C110.447 30.072 109.817 29.862 109.313 29.442C108.837 28.994 108.599 28.364 108.599 27.552V2.478C108.599 1.666 108.837 1.05 109.313 0.63C109.817 0.21 110.447 0 111.203 0C111.959 0 112.589 0.21 113.093 0.63C113.597 1.05 113.849 1.666 113.849 2.478V27.552C113.849 28.364 113.597 28.994 113.093 29.442C112.589 29.862 111.959 30.072 111.203 30.072ZM128.629 30.156C126.529 30.156 124.681 29.722 123.085 28.854C121.517 27.986 120.299 26.74 119.431 25.116C118.563 23.492 118.129 21.602 118.129 19.446C118.129 17.29 118.563 15.414 119.431 13.818C120.299 12.194 121.517 10.948 123.085 10.08C124.681 9.212 126.529 8.778 128.629 8.778C130.729 8.778 132.563 9.212 134.131 10.08C135.703 10.923 136.978 12.2277 137.785 13.818C138.653 15.414 139.087 17.29 139.087 19.446C139.087 21.602 138.653 23.492 137.785 25.116C136.978 26.7063 135.703 28.011 134.131 28.854C132.563 29.722 130.729 30.156 128.629 30.156ZM128.587 26.082C130.295 26.082 131.597 25.522 132.493 24.402C133.389 23.282 133.837 21.63 133.837 19.446C133.837 17.29 133.389 15.652 132.493 14.532C131.597 13.384 130.309 12.81 128.629 12.81C126.949 12.81 125.647 13.384 124.723 14.532C123.827 15.652 123.379 17.29 123.379 19.446C123.379 21.63 123.827 23.282 124.723 24.402C125.619 25.522 126.907 26.082 128.587 26.082ZM160.809 8.862C161.593 8.862 162.223 9.086 162.699 9.534C163.175 9.982 163.413 10.584 163.413 11.34V27.93C163.413 31.15 162.517 33.586 160.725 35.238C158.933 36.89 156.287 37.716 152.787 37.716C149.735 37.716 147.187 37.142 145.143 35.994C144.107 35.378 143.589 34.636 143.589 33.768C143.589 33.152 143.729 32.662 144.009 32.298C144.317 31.934 144.709 31.752 145.185 31.752C145.437 31.752 145.745 31.808 146.109 31.92C146.473 32.06 146.851 32.214 147.243 32.382C148.251 32.802 149.147 33.124 149.931 33.348C150.743 33.572 151.667 33.684 152.703 33.684C156.371 33.684 158.205 31.892 158.205 28.308V25.62C157.589 26.768 156.693 27.664 155.517 28.308C154.341 28.924 152.997 29.232 151.485 29.232C149.693 29.232 148.097 28.812 146.697 27.972C145.325 27.104 144.247 25.9 143.463 24.36C142.679 22.82 142.287 21.042 142.287 19.026C142.287 17.01 142.665 15.232 143.421 13.692C144.205 12.124 145.297 10.92 146.697 10.08C148.097 9.212 149.693 8.778 151.485 8.778C152.997 8.778 154.341 9.1 155.517 9.744C156.663 10.3302 157.601 11.2537 158.205 12.39V11.298C158.205 10.57 158.443 9.982 158.919 9.534C159.395 9.086 160.025 8.862 160.809 8.862ZM152.871 25.158C154.551 25.158 155.853 24.612 156.777 23.52C157.729 22.428 158.205 20.93 158.205 19.026C158.205 17.094 157.729 15.582 156.777 14.49C155.853 13.398 154.551 12.852 152.871 12.852C151.219 12.852 149.917 13.398 148.965 14.49C148.013 15.582 147.537 17.094 147.537 19.026C147.537 20.93 148.013 22.428 148.965 23.52C149.917 24.612 151.219 25.158 152.871 25.158Z" fill="#9C9C9C"/>
</g>
<path d="M1153.91 10.784L1149.31 39.082H1142.7L1144.38 28.864H1137.26L1135.61 39.082H1129L1133.64 10.784H1140.21L1138.24 22.732H1145.36L1147.34 10.784H1153.91H1153.91ZM1167.47 39.082L1167.69 32.912H1161.59L1159.8 39.082H1152.83L1162.21 10.784H1174.27L1174.41 39.082H1167.47H1167.47ZM1165.98 17.662L1163.09 27.645H1167.88L1168.28 17.663H1165.98V17.662ZM1202.78 10.784L1198.18 39.082H1191.57L1186.97 23.598L1184.48 39.083H1177.87L1182.51 10.784H1189.3L1193.83 25.248L1196.21 10.784H1202.78H1202.78ZM1218.21 10.784C1221.4 10.784 1223.68 11.649 1225.04 13.378C1226.04 14.688 1226.54 16.326 1226.54 18.291C1226.54 18.999 1226.47 19.745 1226.35 20.531L1224.93 29.296C1224.44 32.256 1223.25 34.628 1221.35 36.41C1219.45 38.192 1216.99 39.082 1213.97 39.082H1203.34L1207.98 10.784H1218.21ZM1215.91 16.916H1213.53L1210.94 32.95H1214.41C1215.55 32.95 1216.44 32.622 1217.07 31.968C1217.73 31.286 1218.18 30.186 1218.43 28.667L1219.49 22.221C1219.58 21.701 1219.63 21.175 1219.63 20.648C1219.63 18.158 1218.39 16.915 1215.91 16.915V16.916ZM1246.11 39.082H1227.78L1232.42 10.784H1250.75L1249.73 16.916H1237.97L1237.13 22.222H1246.84L1245.82 28.352H1236.11L1235.38 32.951H1247.14L1246.11 39.082H1246.11ZM1266.98 39.082H1250.32L1254.96 10.784H1261.54L1257.92 32.951H1268L1266.98 39.082ZM1202.47 44.118H1266.01L1264.03 50H1200.49L1202.47 44.118ZM1135.95 0H1205.45L1203.46 5.882H1133.96L1135.95 0Z" fill="#9C9C9C"/>
<defs>
<clipPath id="clip0_13_13">
<rect width="164" height="38" fill="white"/>
</clipPath>
</defs>
</svg>
