<svg width="1284" height="49" viewBox="0 0 1284 49" fill="none" xmlns="http://www.w3.org/2000/svg">
<g clip-path="url(#clip0_13_12)">
<path fill-rule="evenodd" clip-rule="evenodd" d="M13.935 40.1229C13.8021 40.1217 13.6713 40.09 13.5526 40.0304C13.4338 39.9708 13.3303 39.8847 13.25 39.7789C13.0219 39.4756 12.8678 39.1233 12.8 38.7499C12.6916 38.2746 12.6081 37.7939 12.55 37.3099C12.4809 36.6866 12.4455 36.06 12.444 35.4329C12.4234 34.0549 12.4281 32.6767 12.458 31.2989C12.476 30.4529 12.484 29.7929 12.484 29.3169V13.5649C12.484 12.7889 12.489 12.1989 12.498 11.7939C12.507 11.3889 12.538 10.9309 12.589 10.4199C12.619 10.0399 12.685 9.66389 12.788 9.29689C12.888 9.01389 13.021 8.74389 13.183 8.49089C13.333 8.22589 13.551 8.00689 13.816 7.85689C14.124 7.70289 14.441 7.56689 14.765 7.44689C15.1825 7.29171 15.6152 7.18109 16.056 7.11689C16.6303 7.03305 17.2064 6.96237 17.784 6.90489V5.44989L17.334 4.99989H1.41199L0.98999 5.44989V6.69189C3.66199 6.85089 5.15599 7.60889 5.47199 8.96489C5.65599 10.1099 5.74399 11.2679 5.73599 12.4269V36.5539C5.7802 37.8071 5.72704 39.0619 5.57699 40.3069C5.50399 40.5009 5.39699 40.6789 5.26099 40.8349C5.05736 41.0784 4.84211 41.3121 4.61599 41.5349C4.43684 41.708 4.26534 41.8888 4.10199 42.0769V43.0019C17.689 43.0019 26.099 43.0899 29.332 43.2669L30.467 39.4349L29.755 38.9319C24.505 39.5929 19.225 39.9899 13.936 40.1219H13.935V40.1229ZM39.191 29.0769C39.1394 29.0913 39.0865 29.1001 39.033 29.1029C38.77 29.1029 38.638 29.0069 38.638 28.8129C38.639 27.9369 38.705 27.0619 38.836 26.1959C38.984 25.2519 39.231 24.3259 39.574 23.4349C39.9045 22.5315 40.3578 21.6778 40.921 20.8979C41.5179 20.1045 42.2931 19.4626 43.1839 19.0242C44.0747 18.5857 45.0562 18.363 46.049 18.3739C46.7654 18.3341 47.4799 18.4814 48.1223 18.8012C48.7647 19.121 49.3128 19.6023 49.713 20.1979C50.5441 21.4297 50.977 22.8871 50.953 24.3729C50.9495 24.6453 50.8629 24.9101 50.705 25.132C50.547 25.3539 50.3252 25.5224 50.069 25.6149C48.6253 26.1967 47.1511 26.6997 45.653 27.1219C43.5459 27.7419 41.4458 28.3853 39.353 29.0519C39.2982 29.0542 39.2439 29.0626 39.191 29.0769ZM54.851 37.3219C51.686 39.2419 48.953 40.2019 46.653 40.2019C45.0948 40.2357 43.5649 39.7831 42.276 38.9069C41.077 38.1023 40.1236 36.9821 39.521 35.6699C38.9277 34.354 38.6264 32.9253 38.638 31.4819C50.133 27.9059 55.933 26.1169 56.038 26.1169C56.4945 26.0235 56.9024 25.7696 57.1877 25.4011C57.473 25.0327 57.6168 24.5742 57.593 24.1089C57.6243 22.8116 57.3201 21.5282 56.71 20.3829C56.1528 19.3585 55.3282 18.5045 54.324 17.9119C53.3108 17.3172 52.2128 16.8805 51.068 16.6169C49.8262 16.3357 48.5562 16.1982 47.283 16.2069C44.999 16.1715 42.7339 16.6267 40.641 17.5419C38.7956 18.339 37.1651 19.5617 35.883 21.1099C34.6742 22.6069 33.7413 24.3071 33.128 26.1309C32.492 28.0075 32.171 29.9764 32.178 31.9579C32.178 36.0279 33.278 39.0759 35.474 41.1019C37.46 42.9519 40.264 43.8759 43.884 43.8759C45.9596 43.8546 48.0026 43.3575 49.856 42.4229C52.0879 41.3113 54.2259 40.0204 56.249 38.5629L55.672 37.5349L54.852 37.3219H54.851ZM90.36 9.45689C89.6536 7.61168 88.2663 6.10772 86.484 5.25489C84.2762 4.32604 81.8914 3.89319 79.498 3.98689C77.7514 3.97687 76.0106 4.18993 74.318 4.62089C72.7435 5.0218 71.2404 5.66372 69.862 6.52389C68.5118 7.37504 67.4077 8.56436 66.659 9.97389C65.8463 11.5157 65.4379 13.2384 65.472 14.9809C65.4711 16.2282 65.7742 17.457 66.355 18.5609C66.9098 19.6534 67.6606 20.6347 68.57 21.4559C69.548 22.3185 70.5874 23.1089 71.68 23.8209C72.7766 24.5516 73.9123 25.2219 75.082 25.8289C76.1816 26.3941 77.2631 26.9937 78.325 27.6269C79.205 28.1249 80.031 28.7139 80.79 29.3839C82.74 31.1989 83.716 32.9249 83.716 34.5639C83.7124 35.4345 83.5304 36.2951 83.1813 37.0927C82.8321 37.8902 82.3232 38.6077 81.686 39.2009C81.0534 39.852 80.2946 40.3672 79.456 40.7149C78.6174 41.0626 77.7167 41.2354 76.809 41.2229C75.7476 41.2534 74.6933 41.0406 73.7269 40.6009C72.7604 40.1611 71.9073 39.5061 71.233 38.6859C69.8337 37.0835 69.0696 35.0242 69.085 32.8969L68.058 32.5269L62.812 38.4199C64.0109 40.1551 65.6364 41.5522 67.532 42.4769C69.4594 43.4225 71.5802 43.9069 73.727 43.8919C75.6858 43.882 77.6321 43.5787 79.501 42.9919C81.3805 42.4261 83.1727 41.6033 84.827 40.5469C86.3996 39.5426 87.7351 38.2085 88.741 36.6369C89.7269 35.1425 90.2539 33.3922 90.257 31.6019C90.2649 30.6411 90.0954 29.6871 89.757 28.7879C89.4439 27.9528 89.0085 27.1689 88.465 26.4619C87.8251 25.677 87.0848 24.9796 86.263 24.3879C85.3651 23.7107 84.4274 23.088 83.455 22.5229C82.2911 21.8597 81.1135 21.2209 79.923 20.6069C79.0929 20.2045 78.2752 19.777 77.471 19.3249C76.7105 18.8804 75.9704 18.402 75.253 17.8909C74.5175 17.3867 73.8453 16.7958 73.251 16.1309C72.7287 15.5104 72.302 14.8154 71.985 14.0689C71.6331 13.265 71.4536 12.3964 71.458 11.5189C71.4418 10.8012 71.5697 10.0876 71.8342 9.42031C72.0988 8.75299 72.4945 8.14553 72.998 7.63389C73.5301 7.10204 74.1669 6.68653 74.868 6.41369C75.5692 6.14085 76.3193 6.01662 77.071 6.04889C78.0021 6.00868 78.9305 6.17494 79.7897 6.53576C80.649 6.89657 81.4178 7.44301 82.041 8.13589C83.2897 9.5492 84.0762 11.3107 84.295 13.1839L85.218 13.4739L90.36 9.45689ZM115.998 19.5919C115.527 18.7671 114.845 18.0829 114.021 17.6099C113.206 17.1441 112.326 16.8014 111.411 16.5929C110.429 16.3751 109.425 16.2687 108.419 16.2759C106.5 16.2489 104.592 16.5759 102.79 17.2409C101.244 17.8022 99.8278 18.6695 98.625 19.7909C97.5072 20.8738 96.5802 22.1375 95.883 23.5289C95.1663 24.9286 94.6387 26.4173 94.314 27.9559C93.9937 29.5121 93.8348 31.0971 93.84 32.6859C93.834 34.0359 94.025 35.3799 94.406 36.6739C94.776 37.9269 95.351 39.1099 96.106 40.1759C96.9021 41.2754 97.9699 42.1496 99.205 42.7129C100.623 43.3609 102.168 43.6819 103.726 43.6509C108.665 43.6509 113.305 41.4749 117.646 37.1239L117.119 36.3569L116.46 36.1989C113.244 38.6829 110.273 39.9249 107.549 39.9249C106.529 39.9413 105.521 39.71 104.61 39.2509C103.784 38.841 103.066 38.2442 102.511 37.5079C101.96 36.751 101.512 35.9245 101.179 35.0499C100.833 34.1766 100.581 33.2687 100.428 32.3419C100.288 31.4679 100.218 30.5839 100.217 29.6989C100.223 28.5739 100.32 27.4519 100.507 26.3429C100.714 25.1079 101.023 23.8929 101.43 22.7089C101.8 21.5518 102.442 20.5003 103.302 19.6429C103.681 19.2592 104.132 18.9551 104.63 18.7487C105.129 18.5423 105.663 18.4376 106.202 18.4409C106.922 18.4012 107.64 18.5632 108.273 18.9088C108.906 19.2543 109.431 19.7697 109.787 20.3969C110.602 21.8656 111.003 23.5281 110.947 25.2069L111.87 25.5769L116.853 22.6179C116.812 21.5557 116.519 20.5185 115.998 19.5919ZM125.661 27.4539C125.795 26.4159 126.029 25.3939 126.36 24.4019C126.663 23.4369 127.093 22.5179 127.638 21.6669C128.162 20.8786 128.861 20.2227 129.682 19.7509C130.567 19.2401 131.574 18.9798 132.595 18.9979C133.703 18.9697 134.796 19.2583 135.745 19.8299C136.627 20.3792 137.336 21.1673 137.788 22.1029C138.265 23.0699 138.61 24.0959 138.815 25.1549C139.032 26.2949 139.139 27.4549 139.132 28.6169C139.132 29.6739 139.123 30.5549 139.105 31.2589C139.077 32.107 139.016 32.9536 138.921 33.7969C138.843 34.6269 138.698 35.4479 138.486 36.2539C138.279 36.9639 138.01 37.6539 137.682 38.3159C137.38 38.9712 136.944 39.5561 136.403 40.0329C135.844 40.4894 135.211 40.8469 134.531 41.0899C133.707 41.3848 132.836 41.5281 131.961 41.5129C130.997 41.5247 130.053 41.2383 129.258 40.6929C128.483 40.1734 127.838 39.4818 127.374 38.6719C126.887 37.8003 126.506 36.8733 126.24 35.9109C125.96 34.9638 125.757 33.9957 125.633 33.0159C125.531 32.1697 125.478 31.3182 125.475 30.4659C125.474 29.459 125.537 28.4531 125.661 27.4539ZM122.392 41.1169C124.307 42.8609 127.348 43.7329 131.514 43.7329C133.054 43.7429 134.59 43.5659 136.088 43.2039C137.497 42.8536 138.84 42.2782 140.066 41.4999C141.298 40.7226 142.375 39.7233 143.243 38.5529C144.192 37.2258 144.897 35.7402 145.326 34.1659C145.858 32.2567 146.115 30.2816 146.091 28.2999C146.142 26.7043 145.846 25.1167 145.222 23.6473C144.598 22.1778 143.662 20.8615 142.479 19.7899C140.281 17.8179 137.091 16.8309 132.909 16.8309C128.726 16.8309 125.281 18.1259 122.574 20.7159C121.245 21.972 120.196 23.4946 119.497 25.1842C118.797 26.8737 118.462 28.692 118.514 30.5199C118.514 35.2419 119.805 38.7739 122.389 41.1169H122.392ZM163.65 20.1869C165.056 20.1869 166.058 20.4689 166.656 21.0329C167.213 21.7129 167.565 22.5389 167.67 23.4129C167.891 24.4429 168.028 25.4909 168.079 26.5439C168.114 27.4689 168.132 28.6629 168.132 30.1249C168.131 32.0233 168.118 33.9217 168.093 35.8199C168.084 36.3919 168.088 37.0659 168.105 37.8419C168.11 38.4199 168.145 38.9979 168.211 39.5719C168.264 39.9519 168.334 40.3659 168.422 40.8139C168.483 41.1899 168.608 41.5509 168.791 41.8839C168.949 42.1489 169.143 42.3899 169.369 42.5989C170.16 43.3166 171.201 43.6957 172.268 43.6549C173.587 43.6549 175.098 42.9849 176.803 41.6469C178.226 40.4635 179.581 39.2015 180.863 37.8669L180.257 36.9669H179.624C178.593 37.7941 177.332 38.2833 176.013 38.3679C175.734 38.3839 175.454 38.343 175.191 38.2476C174.928 38.1522 174.687 38.0043 174.483 37.8129C174.301 37.669 174.145 37.4952 174.021 37.2989C173.876 36.9532 173.783 36.5879 173.745 36.2149C173.644 35.4573 173.6 34.6931 173.613 33.9289C173.613 33.3479 173.644 32.4089 173.705 31.1149C173.754 30.1949 173.785 29.2741 173.798 28.3529V26.7669C173.815 25.0579 173.811 23.8739 173.785 23.2119C173.732 22.3087 173.631 21.4091 173.481 20.5169C173.415 19.6757 173.134 18.8656 172.664 18.1649C172.2 17.6614 171.645 17.2494 171.029 16.9499C170.192 16.545 169.269 16.3497 168.34 16.3809C165.247 16.3809 161.661 17.6499 157.584 20.1869L156.951 19.9489C156.917 18.9772 156.601 18.0363 156.042 17.2409C155.523 16.5609 154.631 16.2229 153.366 16.2229C152.608 16.2324 151.856 16.3617 151.138 16.6059C150.303 16.8859 149.506 17.2679 148.764 17.7419C147.964 18.2449 147.27 18.7119 146.681 19.1429C146.092 19.5739 145.411 20.0979 144.638 20.7149L145.613 22.0099C145.792 21.8939 145.973 21.7796 146.154 21.6669C146.461 21.4729 146.729 21.3149 146.958 21.1909C147.186 21.0679 147.459 20.9229 147.775 20.7549C148.058 20.6009 148.354 20.4719 148.659 20.3689C148.892 20.2889 149.136 20.2439 149.383 20.2369C149.688 20.2299 149.989 20.3069 150.253 20.4619C150.521 20.6389 150.723 20.8989 150.831 21.2019C150.963 21.5219 151.077 21.8469 151.173 22.1789C151.281 22.6259 151.343 23.0819 151.358 23.5409C151.394 24.1409 151.415 24.6249 151.422 24.9939C151.43 25.3629 151.434 25.9179 151.435 26.6589V27.1089C151.435 28.8349 151.303 34.1199 151.04 42.9639L151.699 43.3339L157.631 41.6159C157.455 40.8589 157.323 38.4719 157.235 34.4559C157.148 30.5275 157.105 26.5983 157.107 22.6689C160.165 21.0129 162.344 20.1849 163.645 20.1849L163.65 20.1869ZM189.223 29.1969C189.172 29.2122 189.119 29.2216 189.065 29.2249C188.802 29.2249 188.67 29.1279 188.669 28.9349C188.67 28.0579 188.736 27.1839 188.868 26.3179C189.016 25.3739 189.263 24.4479 189.605 23.5559C189.936 22.6529 190.388 21.7989 190.95 21.0189C191.547 20.2253 192.322 19.5832 193.213 19.1447C194.104 18.7063 195.085 18.4836 196.078 18.4949C196.794 18.455 197.509 18.6022 198.151 18.922C198.794 19.2418 199.342 19.7232 199.742 20.3189C200.573 21.5506 201.006 23.0081 200.981 24.4939C200.977 24.766 200.891 25.0306 200.733 25.2524C200.575 25.4742 200.354 25.6428 200.098 25.7359C198.655 26.3174 197.181 26.8204 195.683 27.2429C193.576 27.8628 191.475 28.5062 189.382 29.1729C189.329 29.1758 189.276 29.1842 189.224 29.1979H189.223V29.1969ZM204.883 37.4429C201.718 39.3639 198.985 40.3239 196.684 40.3229C195.126 40.3565 193.596 39.9042 192.307 39.0289C191.108 38.224 190.155 37.1039 189.553 35.7919C188.959 34.4755 188.658 33.046 188.669 31.6019C200.164 28.0269 205.964 26.2389 206.07 26.2389C206.526 26.1451 206.934 25.8909 207.22 25.5224C207.505 25.1538 207.649 24.6953 207.625 24.2299C207.656 22.9326 207.352 21.6492 206.742 20.5039C206.185 19.4795 205.36 18.6256 204.356 18.0329C203.343 17.4384 202.245 17.0018 201.1 16.7379C199.858 16.4566 198.588 16.3191 197.314 16.3279C195.031 16.2927 192.766 16.7479 190.674 17.6629C188.829 18.4599 187.198 19.6826 185.916 21.2309C184.707 22.7277 183.774 24.4279 183.161 26.2519C182.525 28.1284 182.204 30.0975 182.212 32.0789C182.212 36.1489 183.31 39.1959 185.507 41.2229C187.493 43.0729 190.296 43.9969 193.917 43.9969C195.993 43.9755 198.036 43.4785 199.889 42.5439C202.121 41.4321 204.259 40.1415 206.282 38.6849L205.705 37.6559L204.883 37.4429Z" fill="#9C9C9C"/>
</g>
<g clip-path="url(#clip1_13_12)">
<path d="M442.381 44.0141C439.061 44.0141 436.516 43.4461 434.745 42.3101C433.005 41.1421 432.136 39.4371 432.136 37.1961C432.136 36.0601 432.516 35.1281 433.274 34.4021C434.065 33.6451 435.077 33.2661 436.31 33.2661C437.037 33.2981 437.59 33.4861 437.97 33.8341C438.35 34.1501 438.54 34.4501 438.54 34.7341C438.54 34.7651 438.381 34.8761 438.065 35.0651C437.749 35.2551 437.465 35.5391 437.211 35.9171C436.958 36.2971 436.831 36.8171 436.831 37.4801C436.831 38.9641 437.275 40.1161 438.16 40.9371C439.077 41.7261 440.484 42.1201 442.381 42.1201C443.678 42.1201 444.816 41.8681 445.797 41.3631C446.777 40.8581 447.52 40.1951 448.026 39.3741C448.563 38.5221 448.832 37.6381 448.832 36.7221C448.832 35.5861 448.5 34.6081 447.836 33.7871C447.191 32.9555 446.385 32.2629 445.465 31.7511C444.515 31.1831 443.219 30.5351 441.575 29.8091C439.678 28.9571 438.145 28.1841 436.975 27.4891C435.799 26.7902 434.781 25.8552 433.985 24.7431C433.164 23.5751 432.753 22.1391 432.753 20.4341C432.753 17.6881 433.685 15.6361 435.551 14.2791C437.449 12.9211 439.931 12.2431 442.998 12.2431C445.401 12.2431 447.488 12.7481 449.259 13.7581C451.062 14.7681 451.963 16.2521 451.963 18.2081C451.963 19.3451 451.567 20.2921 450.777 21.0501C450.018 21.7761 449.022 22.1391 447.789 22.1391C447.061 22.1071 446.508 21.9331 446.129 21.6181C445.749 21.2711 445.559 20.9551 445.559 20.6711C445.559 20.6391 445.765 20.5291 446.176 20.3391C446.619 20.1501 446.998 19.8661 447.314 19.4871C447.662 19.1081 447.836 18.5871 447.836 17.9251C447.836 16.7571 447.378 15.8411 446.461 15.1781C445.575 14.5151 444.437 14.1841 443.045 14.1841C441.117 14.1841 439.646 14.6421 438.635 15.5571C437.654 16.4411 437.164 17.5461 437.164 18.8721C437.164 19.9761 437.464 20.9081 438.065 21.6651C438.665 22.3911 439.63 23.1171 440.958 23.8431C442.11 24.4486 443.28 25.0172 444.468 25.5481C446.492 26.4631 448.089 27.3001 449.259 28.0581C450.464 28.8188 451.484 29.8377 452.247 31.0411C453.069 32.2711 453.481 33.8031 453.481 35.6331C453.481 37.2121 452.975 38.6481 451.963 39.9431C450.983 41.2051 449.638 42.1991 447.931 42.9251C446.255 43.6511 444.405 44.0151 442.381 44.0151V44.0141ZM466.394 43.6361C464.244 43.6361 462.536 42.9881 461.271 41.6941C460.006 40.4001 459.374 38.6951 459.374 36.5801V27.8201C459.374 27.0001 459.342 26.4001 459.279 26.0211C459.248 25.6431 459.058 25.3111 458.709 25.0271C458.362 24.7431 457.777 24.6011 456.955 24.6011C456.575 24.6011 456.291 24.5541 456.101 24.4591C455.911 24.3331 455.817 24.0641 455.817 23.6541C455.817 23.4641 455.88 23.2911 456.007 23.1341C456.133 22.9441 456.323 22.8341 456.576 22.8021C458.568 22.5171 460.276 22.1071 461.698 21.5701C462.141 21.4131 462.504 21.3181 462.789 21.2861H462.931C463.437 21.2861 463.691 21.5861 463.691 22.1861V36.5331C463.691 37.9851 464.149 39.1061 465.066 39.8951C465.955 40.6425 467.083 41.0456 468.244 41.0311C469.73 41.0311 470.994 40.6681 472.038 39.9421C473.082 39.2161 473.778 38.4901 474.125 37.7641V27.8211C474.125 27.0001 474.094 26.4011 474.031 26.0211C473.999 25.6431 473.809 25.3111 473.461 25.0271C473.113 24.7431 472.528 24.6011 471.706 24.6011C471.326 24.6011 471.042 24.5541 470.853 24.4591C470.663 24.3331 470.568 24.0641 470.568 23.6541C470.568 23.4641 470.631 23.2911 470.758 23.1341C470.884 22.9441 471.074 22.8341 471.327 22.8021C473.319 22.5171 475.027 22.1071 476.45 21.5701C476.892 21.4131 477.256 21.3181 477.54 21.2861H477.683C478.189 21.2861 478.442 21.5861 478.442 22.1861V38.5701C478.442 40.4331 479.691 41.3641 482.189 41.3641C482.726 41.3641 482.995 41.6641 482.995 42.2641C482.995 42.7051 482.726 42.9741 482.189 43.0681L474.552 43.5891C474.331 43.5891 474.204 43.5101 474.172 43.3531C474.142 43.2261 474.125 42.9901 474.125 42.6431V39.9901H474.031C473.305 40.672 472.561 41.3349 471.801 41.9781C471.232 42.4201 470.489 42.7991 469.571 43.1151C468.686 43.4621 467.627 43.6351 466.394 43.6351V43.6361ZM485.59 43.2101C485.479 43.2096 485.371 43.1836 485.272 43.1342C485.173 43.0848 485.087 43.0132 485.02 42.9251C484.894 42.7361 484.83 42.5151 484.83 42.2631C484.862 41.8531 484.957 41.6151 485.115 41.5531C485.274 41.4581 485.558 41.4101 485.969 41.4101C486.791 41.4101 487.376 41.2681 487.724 40.9841C488.072 40.7001 488.262 40.3681 488.293 39.9901C488.357 39.6101 488.388 39.0111 488.388 38.1901V27.3471C488.388 26.5271 488.357 25.9271 488.293 25.5471C488.262 25.1691 488.072 24.8371 487.724 24.5541C487.376 24.2701 486.791 24.1271 485.969 24.1271C485.589 24.1271 485.305 24.0801 485.116 23.9851C484.926 23.8591 484.831 23.5911 484.831 23.1801C484.831 22.9911 484.894 22.8171 485.021 22.6601C485.147 22.4701 485.337 22.3601 485.59 22.3281C487.645 22.0121 489.337 21.6021 490.665 21.0971C491.203 20.9391 491.566 20.8441 491.756 20.8131H491.898C492.404 20.8131 492.657 21.1131 492.657 21.7131V24.6481H492.799C493.906 23.5431 495.029 22.6751 496.167 22.0441C497.306 21.3811 498.333 21.0501 499.25 21.0501C500.294 21.0501 501.116 21.4441 501.717 22.2331C502.349 22.9911 502.665 23.8751 502.665 24.8851C502.665 25.7691 502.397 26.5581 501.859 27.2521C501.321 27.9471 500.578 28.2941 499.63 28.2941C499.217 28.3013 498.809 28.2036 498.444 28.0101C498.128 27.8201 497.954 27.6631 497.922 27.5371C497.954 27.4741 498.112 27.2841 498.396 26.9681C498.681 26.6211 498.823 26.2271 498.823 25.7851C498.823 25.2161 498.665 24.7591 498.349 24.4121C498.064 24.0641 497.669 23.8911 497.163 23.8911C496.626 23.8911 495.946 24.1591 495.124 24.6961C494.301 25.2011 493.495 25.8481 492.705 26.6371V38.1901C492.705 39.0111 492.736 39.6101 492.799 39.9901C492.863 40.3681 493.068 40.7001 493.416 40.9841C493.764 41.2681 494.349 41.4101 495.171 41.4101H495.456C495.709 41.4101 495.898 41.4581 496.025 41.5521C496.151 41.6471 496.23 41.8841 496.262 42.2621C496.262 42.5151 496.199 42.7361 496.072 42.9251C495.946 43.1151 495.756 43.2101 495.503 43.2101C493.844 43.12 492.184 43.0723 490.523 43.0671C489.1 43.0671 487.456 43.1151 485.59 43.2091V43.2101ZM559.257 43.6361C557.107 43.6361 555.194 43.1301 553.518 42.1201C551.842 41.0791 550.53 39.7211 549.581 38.0481C548.677 36.3928 548.204 34.5363 548.206 32.6501C548.206 30.2831 548.759 28.2311 549.866 26.4951C550.973 24.7271 552.38 23.3851 554.087 22.4701C555.795 21.5231 557.518 21.0501 559.257 21.0501C561.408 21.0501 563.321 21.5701 564.997 22.6121C566.641 23.5888 567.986 24.9971 568.886 26.6841C569.823 28.3112 570.313 30.1567 570.309 32.0341C570.309 34.4021 569.74 36.4701 568.602 38.2381C567.495 39.9741 566.088 41.3151 564.38 42.2621C562.673 43.1781 560.965 43.6361 559.257 43.6361ZM559.257 41.8841C561.408 41.8841 562.973 40.9681 563.953 39.1371C564.965 37.3071 565.471 34.9391 565.471 32.0351C565.471 29.3201 564.949 27.1111 563.906 25.4051C562.894 23.6701 561.344 22.8021 559.257 22.8021C557.076 22.8021 555.495 23.7021 554.514 25.5011C553.534 27.3001 553.044 29.6511 553.044 32.5561C553.044 35.2701 553.55 37.5121 554.562 39.2791C555.574 41.0161 557.139 41.8841 559.257 41.8841ZM582.261 43.8721C580.711 43.8721 579.383 43.3041 578.276 42.1681C577.17 41.0311 576.616 39.4061 576.616 37.2911V23.3701L573.865 23.4651C573.773 23.4658 573.682 23.4448 573.6 23.4036C573.517 23.3624 573.446 23.3022 573.391 23.2281C573.267 23.0468 573.2 22.832 573.201 22.6121C573.201 22.3281 573.249 22.0921 573.343 21.9021C573.47 21.6811 573.644 21.5551 573.865 21.5231C574.972 21.3031 575.826 20.9551 576.427 20.4821C577.059 19.9761 577.518 19.4401 577.802 18.8721C578.087 18.2721 578.435 17.3721 578.846 16.1721C579.004 15.7621 579.352 15.5571 579.889 15.5571C580.11 15.5571 580.332 15.6201 580.553 15.7471C580.774 15.8411 580.885 15.9991 580.885 16.2201L580.553 21.6181L586.103 21.2861H586.198C586.609 21.2861 586.814 21.5861 586.814 22.1861C586.814 22.5331 586.751 22.8651 586.624 23.1801C586.53 23.4651 586.403 23.6071 586.245 23.6071L580.933 23.4651V37.8591C580.933 38.9011 581.138 39.7691 581.549 40.4631C581.992 41.1581 582.703 41.5051 583.684 41.5051C584.664 41.5051 585.534 41.3311 586.292 40.9841C586.704 40.8261 586.956 40.7471 587.051 40.7471C587.273 40.7471 587.447 40.8421 587.573 41.0311C587.7 41.1891 587.826 41.4111 587.953 41.6941C587.987 41.7685 588.003 41.8495 588 41.9311C588 42.0571 587.905 42.1991 587.715 42.3571C586.798 42.9571 585.929 43.3521 585.107 43.5411C584.316 43.7611 583.367 43.8721 582.261 43.8721ZM505.597 42.9251C505.723 43.1151 505.913 43.2091 506.166 43.2091C507.809 43.1189 509.454 43.0716 511.099 43.0671C513.218 43.0671 515.194 43.1151 517.028 43.2091C517.132 43.2115 517.235 43.1865 517.327 43.1367C517.418 43.0868 517.495 43.0139 517.55 42.9251C517.676 42.7351 517.739 42.5151 517.739 42.2621C517.708 41.8841 517.629 41.6471 517.502 41.5521C517.407 41.4581 517.218 41.4101 516.933 41.4101H516.648C515.605 41.4101 514.862 41.3311 514.419 41.1731C513.976 41.0161 513.676 40.7311 513.518 40.3211C513.36 39.8791 513.281 39.1691 513.281 38.1911V23.4631H518.309C518.419 23.4626 518.528 23.4367 518.627 23.3874C518.725 23.3382 518.811 23.2669 518.878 23.1791C519.036 22.9901 519.115 22.7691 519.115 22.5161C519.083 22.1381 518.988 21.9011 518.83 21.8061C518.704 21.6801 518.498 21.6161 518.214 21.6161H513.281V18.7761C513.281 17.2611 513.344 15.9351 513.47 14.7981C513.588 13.6566 513.961 12.5563 514.561 11.5781C515.162 10.6001 516.095 10.1111 517.36 10.1111C517.505 10.1111 517.646 10.1191 517.782 10.1361C517.764 9.60562 517.799 9.07469 517.886 8.5511C517.821 8.54931 517.757 8.54831 517.692 8.5481C514.909 8.6111 512.743 9.6681 511.194 11.7211C509.676 13.7411 508.917 16.3771 508.917 19.6281V21.6171H506.071C505.66 21.6171 505.375 21.6641 505.217 21.7591C505.059 21.8221 504.964 22.0751 504.933 22.5161C504.933 22.7691 504.996 22.9901 505.122 23.1791C505.281 23.3691 505.486 23.4641 505.739 23.4641H508.917V38.1901C508.917 39.0431 508.885 39.6581 508.822 40.0371C508.791 40.3841 508.601 40.7001 508.253 40.9841C507.905 41.2681 507.32 41.4101 506.498 41.4101C506.087 41.4101 505.802 41.4581 505.644 41.5521C505.518 41.6151 505.439 41.8521 505.407 42.2621C505.407 42.5151 505.47 42.7361 505.597 42.9251Z" fill="#9C9C9C"/>
<path fill-rule="evenodd" clip-rule="evenodd" d="M530.952 9.865C530.951 10.5564 530.814 11.2409 530.549 11.8794C530.284 12.518 529.896 13.098 529.406 13.5865C528.917 14.0749 528.336 14.4622 527.697 14.7261C527.058 14.9901 526.373 15.1257 525.682 15.125C524.286 15.1261 522.946 14.5725 521.958 13.5862C520.97 12.5998 520.414 11.2613 520.412 9.865C520.412 9.17346 520.549 8.48879 520.814 7.85009C521.079 7.21139 521.468 6.63117 521.957 6.14255C522.447 5.65392 523.027 5.26647 523.666 5.00232C524.306 4.73816 524.99 4.60247 525.682 4.603C526.374 4.60234 527.058 4.73794 527.698 5.00205C528.337 5.26616 528.918 5.6536 529.407 6.14225C529.896 6.6309 530.285 7.21118 530.55 7.84994C530.815 8.4887 530.952 9.17342 530.952 9.865ZM525.682 12.495C526.028 12.4954 526.37 12.4277 526.69 12.2957C527.009 12.1637 527.3 11.9701 527.544 11.7259C527.789 11.4816 527.983 11.1916 528.116 10.8723C528.248 10.553 528.317 10.2107 528.317 9.865C528.317 9.51919 528.249 9.1768 528.116 8.85739C527.984 8.53798 527.789 8.24782 527.545 8.00348C527.3 7.75914 527.009 7.56542 526.69 7.43339C526.37 7.30136 526.028 7.2336 525.682 7.234C524.984 7.23373 524.314 7.51058 523.82 8.00371C523.326 8.49685 523.048 9.16594 523.047 9.864C523.048 10.5622 523.326 11.2316 523.82 11.7249C524.314 12.2183 524.984 12.4953 525.682 12.495ZM523.372 17.414V42.784C523.372 43.067 523.452 43.288 523.61 43.446C523.768 43.636 523.989 43.73 524.274 43.73C524.558 43.73 524.795 43.604 524.985 43.352C525.175 43.131 525.349 42.799 525.507 42.357C525.665 41.915 525.807 41.568 525.934 41.315H526.171C528.226 42.862 530.661 43.635 533.475 43.635C535.373 43.635 537.159 43.13 538.835 42.12C540.511 41.11 541.839 39.737 542.82 38C543.831 36.233 544.337 34.292 544.337 32.177C544.337 30.03 543.895 28.121 543.009 26.447C542.156 24.743 540.97 23.417 539.452 22.47C537.934 21.523 536.242 21.05 534.377 21.05C533.238 21.05 532.084 21.286 530.914 21.76C529.776 22.202 528.748 22.88 527.831 23.796H527.689V17.5C526.269 17.8685 524.776 17.8388 523.372 17.414ZM537.697 39.421C536.527 41.158 534.977 42.026 533.049 42.026C532.037 42.026 531.136 41.805 530.345 41.363C529.586 40.921 528.969 40.4 528.495 39.8C528.052 39.169 527.784 38.6 527.689 38.096V25.596C529.048 24.143 530.724 23.417 532.717 23.417C534.962 23.417 536.653 24.301 537.792 26.069C538.93 27.805 539.499 29.904 539.499 32.366C539.499 35.302 538.899 37.654 537.697 39.421ZM400.7 0.366998C401.035 0.127971 401.437 -0.000488281 401.849 -0.000488281C402.261 -0.000488281 402.663 0.127971 402.998 0.366998C411.558 6.471 415.438 13.788 415.683 24.287C415.796 29.3 415.313 33.89 413.842 37.855C412.332 41.823 409.649 45.488 405.699 48.584C405.453 48.7751 405.165 48.9055 404.86 48.9646C404.554 49.0237 404.238 49.0098 403.939 48.924C402.729 48.577 402.523 47.145 401.849 46.253C401.175 47.145 400.971 48.576 399.759 48.923C399.46 49.0086 399.144 49.0224 398.839 48.9633C398.533 48.9043 398.246 48.774 398 48.583C394.05 45.488 391.366 41.823 389.857 37.855C388.387 33.89 387.903 29.3 388.016 24.287C388.26 13.788 392.14 6.47 400.7 0.366998ZM405.126 44.062C407.598 41.792 409.088 39.317 410.14 36.47C411.465 32.99 411.847 29.144 411.732 24.379C411.542 16.192 409.622 10.865 403.809 5.919V20.387C406.082 20.971 407.102 23.197 407.102 25.647C407.102 28.099 406.082 30.325 403.809 30.909V42.746C403.809 42.746 404.865 43.719 405.126 44.062ZM398.538 44.062C396.066 41.792 394.611 39.317 393.558 36.47C392.234 32.99 391.852 29.144 391.968 24.379C392.158 16.209 394.067 10.859 399.856 5.919V20.387C397.583 20.971 396.562 23.197 396.562 25.647C396.562 28.099 397.582 30.325 399.856 30.909V42.746C399.856 42.746 398.79 43.731 398.538 44.062ZM401.832 23.017C401.134 23.0165 400.464 23.2932 399.97 23.7864C399.476 24.2796 399.198 24.9489 399.197 25.647C399.197 27.101 400.377 28.278 401.832 28.278C402.53 28.2785 403.2 28.0018 403.694 27.5086C404.188 27.0154 404.466 26.3461 404.467 25.648C404.467 24.195 403.287 23.018 401.832 23.018V23.017Z" fill="#9C9C9C"/>
</g>
<g clip-path="url(#clip2_13_12)">
<path d="M759.644 40.9551C758.471 40.9866 757.308 40.7221 756.264 40.1861C755.225 39.6538 754.34 38.8657 753.69 37.8961C751.645 39.7746 748.995 40.8596 746.22 40.9551C741.233 40.9551 738.53 37.4911 739.443 32.5251C740.137 28.7911 743.242 25.0491 744.11 22.0451C742.43 21.0371 739.936 20.3351 738.767 22.3951L738 21.9361C738.612 19.6781 740.091 18.1761 742.228 18.1761C744.365 18.1761 745.945 19.4261 747.982 18.2751H749.607C748.74 22.7731 746.548 26.3711 745.379 32.6691C744.667 36.5291 745.991 38.2831 748.229 38.2831C749.882 38.0798 751.403 37.2758 752.502 36.0241C751.61 33.8277 751.16 31.4768 751.178 29.1061C751.178 23.6361 753.726 17.8701 758 17.8701C760.192 17.8701 761.817 19.3721 761.817 22.9351C761.817 26.4971 759.626 32.0121 756.831 35.4751C756.982 36.3001 757.421 37.0471 758.071 37.5881C758.721 38.1281 759.542 38.4281 760.393 38.4361C764.466 38.4361 767.315 32.4161 767.315 26.8481C767.315 21.2801 764.868 21.5311 765.078 19.6511C765.097 19.4162 765.162 19.1873 765.27 18.9776C765.377 18.7679 765.525 18.5815 765.705 18.4291C766.069 18.1191 766.543 17.9641 767.023 17.9961C768.293 17.9961 769.963 19.5791 769.963 26.0031C769.963 34.1891 765.543 40.9551 759.643 40.9551H759.644ZM758.722 20.6951C757.452 20.6951 756.228 25.3101 756.073 30.0781C756.014 31.0977 756.032 32.1203 756.128 33.1371C758.043 30.0182 759.212 26.499 759.543 22.8541C759.534 21.2341 759.233 20.6941 758.721 20.6941L758.722 20.6951ZM778.329 40.7481C777.796 40.8023 777.258 40.7406 776.752 40.5671C776.248 40.3947 775.787 40.1141 775.402 39.7451C775.02 39.3781 774.723 38.9311 774.534 38.4361C774.345 37.9432 774.269 37.4143 774.31 36.8881C774.31 34.6841 777.215 23.6991 777.215 21.8911C777.215 21.0371 777.014 20.5331 776.247 20.5331C775.391 20.6704 774.594 21.0548 773.954 21.6391V20.0831C775.284 18.877 777 18.1849 778.794 18.1311C779.33 18.0834 779.87 18.1516 780.377 18.3311C780.883 18.5111 781.343 18.7961 781.726 19.1691C782.108 19.5411 782.404 19.9911 782.592 20.4891C782.779 20.9851 782.855 21.5161 782.812 22.0441C782.812 24.2481 779.909 35.1881 779.909 36.9871C779.909 37.8421 780.109 38.3461 780.877 38.3461C781.721 38.2057 782.513 37.8422 783.169 37.2931V38.7951C781.845 40.0093 780.125 40.7031 778.329 40.7481ZM781.89 8.99909C782.288 8.98709 782.684 9.05909 783.051 9.21309C783.417 9.36709 783.746 9.59709 784.012 9.88809C784.279 10.1769 784.479 10.5213 784.597 10.8965C784.715 11.2717 784.748 11.6685 784.694 12.0581C784.596 12.89 784.197 13.6574 783.573 14.2161C782.944 14.7799 782.133 15.0995 781.288 15.1171C780.89 15.1297 780.495 15.0567 780.128 14.9031C779.762 14.7503 779.434 14.52 779.166 14.2281C778.899 13.9393 778.699 13.5949 778.581 13.2197C778.463 12.8444 778.43 12.4477 778.484 12.0581C778.582 11.2262 778.981 10.4588 779.605 9.90009C780.235 9.33673 781.045 9.01746 781.89 9.00009V8.99909ZM793.196 36.0341C792.941 37.3921 793.096 38.3371 794.064 38.3371C794.911 38.2067 795.705 37.8419 796.356 37.2841L796.447 38.7951C795.118 40.0015 793.401 40.694 791.607 40.7481C788.447 40.7481 787.224 38.4901 787.69 35.6831L790.795 18.2751C791.827 12.4631 791.47 11.6981 788.31 11.6981L788.511 10.2951L798.036 9.05309L793.196 36.0331V36.0341ZM819.982 35.9881C819.726 37.3471 819.826 38.3461 820.849 38.3461C821.698 38.1874 822.49 37.8053 823.142 37.2391V38.7951C821.821 40.0151 820.1 40.7097 818.302 40.7481C817.393 40.814 816.491 40.5412 815.771 39.9821C815.056 39.4285 814.577 38.6257 814.429 37.7341C813.662 38.7326 812.679 39.5434 811.552 40.1051C810.42 40.6705 809.174 40.9733 807.909 40.9911C801.854 40.9911 799.306 35.7281 800.475 29.4031C801.644 23.0791 807.095 17.9151 813.26 17.9151C814.717 17.8846 816.159 18.2216 817.452 18.8951L817.607 18.0951C818.813 11.9051 818.256 11.6981 815.096 11.6981L815.251 10.2951L824.821 9.05309L819.981 35.9891L819.982 35.9881ZM813.415 20.1821C809.899 20.1821 807.562 24.2931 806.639 29.3581C805.671 34.6751 806.283 38.3551 809.589 38.3551C811.826 38.3551 814.374 35.6551 815.141 31.5351L817.023 21.1001C815.935 20.4506 814.681 20.1317 813.415 20.1821ZM836.073 40.9991C828.995 40.9991 827.059 35.9791 827.927 31.1661L830.237 18.2751C831.306 12.4551 830.95 11.6531 827.79 11.6531L827.99 10.2501L837.543 9.05309L835.607 19.9841C837.101 18.708 838.986 17.9811 840.95 17.9241C847.114 17.9241 850.009 23.0881 848.895 29.4121C847.781 35.7371 842.11 41.0001 836.073 41.0001V40.9991ZM839.379 20.3081C838.352 20.3282 837.358 20.6687 836.534 21.2821C835.717 21.8907 835.114 22.7434 834.813 23.7171L833.388 31.8141C832.52 36.6271 834.256 38.5881 836.448 38.5881C839.653 38.5881 841.644 35.0801 842.712 29.3131C843.662 24.1491 842.795 20.3351 839.37 20.3351L839.379 20.3081ZM858.548 32.3271C858.548 36.1871 860.429 38.2471 864.027 38.2471C865.854 38.2471 868.511 36.9971 870.192 35.3411L870.904 36.9421C869.693 38.2051 868.242 39.2141 866.637 39.9101C865.025 40.6089 863.291 40.9821 861.534 41.0081C856.192 41.0081 852.575 37.0951 852.575 31.7781C852.575 23.9061 859.196 17.9331 865.562 17.9331C869.434 17.9331 871.616 20.0381 871.616 22.4941C871.571 26.3081 867.9 30.5911 858.548 32.3271ZM865.114 20.2361C862.21 20.2361 859.416 24.4011 858.648 30.3661C864.502 28.9621 866.995 25.0491 867.05 22.5391C867.041 21.1361 866.374 20.2361 865.105 20.2361H865.114ZM892.393 40.7481C891.484 40.8139 890.582 40.5411 889.862 39.9821C889.148 39.4284 888.669 38.6256 888.521 37.7341C887.783 38.7322 886.822 39.5446 885.715 40.1071C884.603 40.6731 883.376 40.9753 882.128 40.9901C876.174 40.9901 873.626 35.7281 874.822 29.4031C876.018 23.0791 881.379 17.9231 887.562 17.9231C888.872 17.9165 890.17 18.1739 891.379 18.6801H897.187L894.073 35.9881C893.817 37.3471 893.918 38.3461 894.941 38.3461C895.79 38.1872 896.581 37.8051 897.233 37.2391V38.7951C895.912 40.015 894.191 40.7096 892.393 40.7481ZM887.708 20.1821C884.292 20.1821 881.9 24.2931 880.986 29.3581C880.018 34.6751 880.685 38.3551 883.726 38.3551C886.064 38.3551 888.566 35.5481 889.279 31.5351L891.16 21.1001C890.133 20.4506 888.931 20.1303 887.717 20.1821H887.708ZM915.005 23.8431C913.626 23.8431 913.269 22.7911 912.868 21.6841C912.731 21.1245 912.402 20.6306 911.939 20.2881C911.472 19.9427 910.9 19.7686 910.32 19.7951C909.566 19.7552 908.824 19.9952 908.237 20.4691C907.654 20.9382 907.27 21.6099 907.16 22.3501C907.005 23.7091 908.027 24.8601 909.963 26.5151L912.557 28.6201C913.521 29.3379 914.269 30.3064 914.721 31.4201C915.17 32.5301 915.303 33.7401 915.105 34.9181C914.447 38.6781 911.288 40.9901 907.059 40.9901C901.963 40.9901 898.712 38.0301 899.068 36.0241C899.151 35.4971 899.421 35.0141 899.831 34.6661C900.241 34.3161 900.764 34.1221 901.306 34.1171C902.63 34.1171 903.132 35.1161 903.543 36.4201C903.807 37.1701 904.314 37.8121 904.986 38.2481C905.66 38.6844 906.459 38.8891 907.26 38.8311C908.052 38.8686 908.829 38.613 909.444 38.1131C910.053 37.6174 910.454 36.9106 910.566 36.1331C910.767 34.3331 909.653 33.2271 907.562 31.3641L905.014 29.1601C904.118 28.4868 903.418 27.5869 902.986 26.5531C902.556 25.5244 902.411 24.3991 902.566 23.2951C903.023 20.8841 905.306 17.8971 910.557 17.8971C914.63 17.8971 917.178 20.1551 916.95 21.9631C916.924 22.4618 916.71 22.932 916.35 23.2781C915.99 23.6261 915.509 23.8281 915.005 23.8431ZM933.644 20.6951H928.703L926.311 34.0271C925.799 36.7891 926.21 38.0401 927.735 38.0401C928.548 38.0401 929.826 37.5901 931.653 35.7371L931.753 37.6891C930.923 38.6568 929.895 39.4344 928.738 39.9691C927.576 40.5068 926.312 40.7905 925.032 40.8011C921.571 40.8011 919.836 38.3911 920.658 33.9281L923.05 20.6951H919.187L919.489 18.6351H923.388L924.411 12.6701H930.11L929.041 18.6341H933.982L933.644 20.6941V20.6951Z" fill="#9C9C9C"/>
</g>
<path d="M1155.39 28.737V33.823C1155.39 36.366 1154.27 37.283 1152.49 37.283C1150.71 37.283 1149.59 36.366 1149.59 33.823V14.596C1149.59 12.053 1150.72 11.086 1152.49 11.086C1154.27 11.086 1155.39 12.053 1155.39 14.596V18.411H1160.68V14.952C1160.68 9.255 1157.84 6 1152.34 6C1146.85 6 1144 9.255 1144 14.952V33.467C1144 39.164 1146.85 42.42 1152.34 42.42C1157.84 42.42 1160.68 39.164 1160.68 33.467V28.737H1155.39ZM1176.5 6.407L1182.2 42.013H1176.55L1175.59 35.553H1168.72L1167.75 42.013H1162.62L1168.31 6.407H1176.5ZM1172.08 12.714L1169.43 30.721H1174.82L1172.18 12.713H1172.08L1172.08 12.714ZM1202.19 42.013H1196.49C1196.19 41.097 1195.98 40.537 1195.98 37.638V32.043C1195.98 28.737 1194.86 27.516 1192.32 27.516H1190.39V42.013H1184.79V6.407H1193.24C1199.04 6.407 1201.53 9.103 1201.53 14.597V17.394C1201.53 21.056 1200.36 23.396 1197.87 24.566C1200.66 25.837 1201.58 28.482 1201.58 32.196V37.689C1201.58 39.419 1201.63 40.69 1202.19 42.013H1202.19ZM1193.08 11.493H1190.39V22.43H1192.58C1194.66 22.43 1195.93 21.515 1195.93 18.666V15.156C1195.93 12.613 1195.07 11.494 1193.08 11.494V11.493ZM1219.24 6.407L1224.94 42.013H1219.29L1218.33 35.553H1211.46L1210.49 42.013H1205.36L1211.05 6.407H1219.24H1219.24ZM1214.82 12.714L1212.17 30.721H1217.56L1214.92 12.713H1214.82V12.714ZM1230.11 6.407H1224.47L1229.96 42.013H1238.3L1243.8 6.407H1238.66L1234.44 35.45H1234.34L1230.11 6.407ZM1257.21 6.407L1262.91 42.013H1257.26L1256.3 35.553H1249.43L1248.46 42.013H1243.33L1249.02 6.407H1257.21ZM1252.79 12.714L1250.14 30.721H1255.54L1252.89 12.713H1252.79V12.714ZM1278.25 42.013H1284V6.407H1279.01V27.719H1278.91L1273.27 6.407H1266.25V42.013H1271.28V16.223H1271.39L1278.25 42.013Z" fill="#9C9C9C"/>
<defs>
<clipPath id="clip0_13_12">
<rect width="208" height="41" fill="white" transform="translate(0 4)"/>
</clipPath>
<clipPath id="clip1_13_12">
<rect width="200" height="49" fill="white" transform="translate(388)"/>
</clipPath>
<clipPath id="clip2_13_12">
<rect width="196" height="34" fill="white" transform="translate(738 8)"/>
</clipPath>
</defs>
</svg>
